<?xml version="1.0" standalone="no"?>
<!DOCTYPE svg PUBLIC "-//W3C//DTD SVG 20010904//EN"
 "http://www.w3.org/TR/2001/REC-SVG-20010904/DTD/svg10.dtd">
<svg version="1.0" xmlns="http://www.w3.org/2000/svg"
 width="186.000000pt" height="272.000000pt" viewBox="0 0 186.000000 272.000000"
 preserveAspectRatio="xMidYMid meet">

<g transform="translate(0.000000,272.000000) scale(0.100000,-0.100000)"
fill="#000000" stroke="none">
<path d="M920 2690 c-11 -11 -20 -31 -20 -46 0 -19 -8 -28 -34 -39 -51 -21
-62 -69 -25 -106 16 -16 30 -20 67 -17 44 3 47 2 45 -20 -4 -33 14 -62 39 -62
17 0 19 -4 13 -22 -11 -37 -26 -141 -20 -146 3 -3 -8 -11 -24 -18 -43 -18 -51
-57 -19 -92 14 -15 28 -35 31 -45 6 -17 -10 -107 -19 -107 -3 0 -23 12 -47 26
-67 43 -226 204 -254 258 -14 27 -40 65 -59 84 -19 19 -34 42 -34 49 0 8 -8
28 -17 43 -14 24 -15 34 -5 55 23 51 11 75 -38 75 -26 0 -80 -48 -80 -71 0
-26 -37 -39 -108 -39 -150 0 -302 -56 -302 -110 0 -22 20 -30 73 -30 51 0 168
-22 273 -51 117 -32 124 -37 124 -77 0 -30 12 -46 108 -139 59 -58 157 -143
217 -188 154 -116 187 -148 180 -177 -10 -47 -25 -194 -25 -254 0 -47 5 -67
21 -88 30 -38 53 -35 45 8 -4 23 -2 37 8 45 12 10 16 5 22 -34 4 -30 2 -55 -6
-69 -12 -24 -8 -119 9 -211 11 -57 -12 -447 -34 -583 -19 -116 -19 -109 6
-117 18 -6 19 -9 6 -23 -8 -10 -16 -23 -18 -30 -3 -7 -35 -23 -71 -36 -57 -19
-83 -22 -172 -19 -156 6 -236 -24 -236 -87 0 -71 76 -106 230 -104 95 1 114 5
205 39 108 40 196 58 206 42 6 -9 91 -41 249 -94 177 -59 409 -9 398 85 -2 21
-13 32 -51 51 -40 20 -66 24 -160 27 -145 4 -192 17 -212 57 -9 18 -11 33 -6
37 6 3 28 80 50 170 23 91 54 215 71 275 34 128 41 277 15 361 -16 53 -10 64
33 64 14 0 52 27 100 71 85 79 96 94 88 114 -6 16 -68 47 -88 44 -70 -9 -78 9
-35 83 32 54 47 100 47 145 0 35 -18 52 -110 107 -30 18 -93 56 -139 84 -84
52 -147 76 -179 70 -29 -6 -42 49 -23 97 8 22 21 44 28 48 7 4 13 14 13 21 0
8 11 21 25 30 35 23 33 60 -5 88 -17 12 -30 31 -30 43 0 11 -5 26 -12 33 -8 8
-8 12 -1 12 12 0 53 -46 91 -104 24 -35 27 -49 27 -130 0 -50 4 -97 8 -104 28
-45 73 33 62 107 -10 65 -37 112 -109 189 -59 63 -106 138 -106 170 0 7 -13
26 -28 42 -28 28 -29 28 -8 39 20 11 20 11 -1 5 -33 -8 -28 3 10 26 17 11 28
20 23 20 -5 0 -24 -9 -42 -21 -39 -24 -44 -16 -11 20 l22 26 -26 -22 c-31 -28
-39 -29 -39 -3 0 23 -32 43 -55 34 -22 -9 -35 12 -35 59 0 44 -28 77 -65 77
-14 0 -34 -9 -45 -20z m80 -10 c22 -22 28 -80 8 -80 -10 0 -10 -2 0 -9 10 -6
3 -18 -27 -47 -21 -22 -44 -38 -50 -36 -6 2 -11 -1 -11 -7 0 -6 -13 -11 -30
-11 -56 0 -78 74 -29 100 11 6 23 9 28 6 5 -3 14 14 20 39 16 63 54 82 91 45z
m105 -140 c0 -8 4 -21 8 -28 12 -18 -2 -54 -19 -48 -22 9 -44 -4 -60 -36 -13
-25 -17 -28 -31 -16 -9 7 -19 11 -22 8 -3 -3 -7 9 -9 27 -3 25 5 40 34 73 31
34 43 40 68 38 19 -2 31 -9 31 -18z m-569 -3 c2 -7 -1 -28 -9 -45 -12 -30 -11
-37 10 -81 28 -55 24 -87 -13 -125 -39 -38 -83 -41 -182 -12 -48 14 -125 32
-171 40 -94 17 -111 27 -90 52 12 15 12 17 -1 12 -8 -3 -15 -17 -15 -31 1 -19
-4 -27 -17 -27 -30 0 -32 22 -5 45 21 19 34 22 74 17 26 -2 67 -10 90 -17 24
-7 41 -9 38 -4 -7 11 -71 28 -115 31 -19 1 1 5 45 8 79 6 79 6 20 8 -89 4 -48
18 70 26 137 9 157 15 167 52 12 46 91 85 104 51z m563 -130 c6 -8 15 -31 20
-53 8 -33 9 -35 10 -11 2 58 42 91 56 46 8 -24 10 -147 3 -155 -13 -12 -38 10
-33 30 6 23 -10 55 -21 44 -3 -4 -10 -22 -14 -40 l-8 -33 -1 38 c-1 48 -24 46
-29 -2 -3 -24 -8 -31 -20 -29 -23 4 -28 94 -8 142 16 38 27 44 45 23z m-493
-104 c9 -20 14 -47 11 -60 -5 -29 9 -17 16 12 3 11 5 -6 6 -37 1 -47 -3 -62
-25 -87 -16 -20 -35 -31 -51 -31 -26 0 -26 0 -7 21 19 22 19 22 -2 11 -32 -17
-66 11 -62 51 4 38 16 42 48 17 l25 -19 -25 -10 c-22 -9 -23 -10 -4 -10 48 -2
77 79 50 142 -8 21 -11 37 -5 37 6 0 17 -17 25 -37z m-47 -22 c-6 -17 -19 -36
-29 -41 -24 -13 -73 -13 -65 0 3 6 15 10 25 10 11 0 32 16 47 35 32 40 37 40
22 -4z m472 -30 c20 -28 156 -35 170 -8 14 24 49 22 49 -3 0 -11 -5 -20 -11
-20 -5 0 -7 5 -4 10 3 6 1 10 -4 10 -26 0 -8 -30 24 -40 61 -20 72 -84 17 -96
-15 -3 -36 -10 -47 -15 -17 -8 -16 -9 8 -6 17 3 26 0 24 -7 -2 -6 -16 -12 -30
-14 -21 -3 -27 1 -27 16 0 23 -52 35 -145 32 -72 -2 -111 11 -120 40 -9 27 16
56 56 64 29 6 39 29 17 42 -8 5 -9 2 -5 -10 4 -10 3 -15 -3 -11 -15 9 -12 35
4 35 7 0 20 -9 27 -19z m-139 -257 c37 -25 66 -50 62 -55 -3 -5 0 -25 6 -44
12 -36 37 -47 45 -20 3 8 7 22 10 30 2 9 11 12 21 8 19 -7 16 -29 -18 -123
-28 -80 -27 -79 -39 -58 -5 10 -62 56 -126 104 -142 107 -249 198 -264 226 -9
17 -8 23 4 30 30 16 47 39 57 78 l11 39 81 -85 c45 -47 112 -105 150 -130z
m138 91 c0 -15 -43 -12 -48 3 -3 10 4 13 22 10 15 -2 26 -7 26 -13z m150 -5
c12 -20 9 -21 -49 -22 -32 0 -57 -6 -66 -15 -13 -13 -16 -13 -21 0 -3 9 -1 24
5 36 9 16 20 19 67 18 35 -2 58 -8 64 -17z m-116 -79 c32 -35 62 -44 95 -26
16 8 32 11 36 7 5 -4 5 -2 2 4 -7 12 14 64 26 64 11 0 8 -18 -8 -51 -9 -16
-20 -27 -24 -24 -5 2 -14 -2 -21 -10 -30 -36 -104 -5 -135 55 -17 33 -20 55
-3 25 6 -11 20 -31 32 -44z m50 37 c-6 -10 -4 -10 7 0 7 6 26 12 41 12 37 0
38 -31 1 -59 -29 -24 -56 -21 -87 9 -16 16 -17 22 -6 34 15 19 55 22 44 4z
m-59 -86 c-3 -8 -5 -18 -5 -23 0 -4 -7 -6 -15 -3 -10 4 -15 20 -15 48 l0 41
20 -25 c11 -14 17 -31 15 -38z m33 -39 c-3 -36 -1 -38 29 -41 50 -5 76 13 68
49 -5 22 -3 29 9 29 25 0 24 -48 -2 -89 -16 -25 -16 -26 2 -11 18 14 19 13 12
-15 -10 -41 -34 -65 -65 -65 -38 1 -65 26 -68 63 -1 17 -5 51 -9 75 -6 36 -4
42 10 42 14 0 17 -8 14 -37z m272 -51 c71 -36 293 -172 303 -186 12 -17 0 -92
-24 -139 -47 -93 -99 -118 -169 -82 -36 18 -36 19 -9 79 15 36 25 46 37 41 12
-5 12 -1 -4 16 l-19 22 23 -12 c39 -20 24 -4 -25 27 -71 45 -161 78 -175 64
-9 -9 -8 -12 5 -12 20 0 34 -62 20 -93 -10 -21 -11 -21 -31 13 -38 62 -65 233
-46 285 8 21 39 15 114 -23z m-133 6 c-3 -8 -6 -5 -6 6 -1 11 2 17 5 13 3 -3
4 -12 1 -19z m-188 -119 c-18 -76 -23 -125 -23 -261 -1 -93 -2 -168 -3 -168
-1 0 -11 10 -23 22 -25 27 -26 81 -4 245 17 128 56 274 70 260 3 -2 -5 -47
-17 -98z m224 -116 c24 -62 52 -88 67 -63 8 13 10 13 14 0 43 -117 45 -148 16
-203 -11 -20 -20 -43 -20 -51 0 -14 -40 -47 -70 -58 -13 -5 -14 7 -11 73 2 44
-4 120 -13 172 -23 136 -38 296 -29 310 4 7 11 -17 15 -56 5 -38 18 -94 31
-124z m-138 123 c11 -3 31 0 45 7 l25 13 11 -91 c6 -49 20 -148 30 -218 14
-100 15 -139 7 -179 l-10 -50 29 6 c16 3 42 15 58 26 l29 20 6 -21 c20 -63
-173 -106 -248 -56 -21 13 -26 27 -32 79 -3 35 -18 111 -31 169 -26 111 -25
151 7 292 l11 48 22 -19 c11 -11 30 -22 41 -26z m269 -100 c63 -28 81 -52 66
-90 -5 -14 -15 -26 -22 -26 -6 0 -22 -9 -34 -21 l-23 -21 -11 43 c-6 24 -18
65 -25 92 -8 26 -12 47 -10 47 3 0 29 -11 59 -24z m39 -160 c-8 -39 40 -68
104 -64 60 3 66 -10 12 -29 -28 -10 -30 -12 -10 -12 20 -1 21 -3 11 -16 -16
-19 -61 -19 -105 -1 -34 15 -55 41 -55 72 0 14 3 14 16 4 13 -12 14 -10 3 13
-9 21 -9 30 1 42 18 22 28 18 23 -9z m196 -90 c-16 -15 -99 -75 -99 -72 0 8
59 64 72 69 16 7 33 8 27 3z m87 -16 c51 0 39 -29 -41 -103 -94 -87 -95 -88
-146 -90 -34 -1 -46 4 -65 26 -26 30 -31 28 -13 -4 9 -19 9 -19 -10 -10 -11 6
-23 21 -26 32 -6 17 -9 19 -16 8 -7 -11 -10 -9 -15 9 -4 12 -10 22 -15 22 -5
0 -9 17 -8 38 0 33 2 35 11 16 21 -45 101 -63 136 -31 24 22 44 21 75 -3 24
-19 46 -13 33 9 -4 5 13 25 36 45 24 20 37 36 29 36 -8 0 -31 -18 -52 -40 -24
-26 -44 -38 -53 -34 -24 9 -20 19 20 49 38 29 87 47 92 33 2 -4 15 -8 28 -8z
m-304 -30 c18 -32 45 -38 78 -18 22 14 33 8 25 -14 -23 -59 -135 -27 -135 38
0 32 11 30 32 -6z m-344 -107 c-3 -24 3 -31 42 -50 70 -36 172 -29 240 17 24
16 26 16 58 -6 l32 -22 -37 -31 c-63 -52 -101 -66 -179 -65 -58 0 -79 5 -117
27 -26 16 -47 34 -47 42 0 18 11 19 30 3 8 -7 3 1 -13 18 -27 30 -39 94 -17
94 6 0 9 -12 8 -27z m415 -72 c35 -14 52 -83 51 -211 -1 -94 -7 -125 -54 -295
-29 -104 -57 -211 -63 -238 -8 -38 -15 -49 -36 -55 -40 -11 -139 -8 -152 5 -9
9 -7 40 5 125 21 135 32 370 18 349 -6 -8 -8 -29 -5 -47 5 -33 -9 -183 -29
-312 l-12 -72 -51 0 c-29 0 -67 5 -84 11 -31 11 -33 14 -28 53 3 22 10 129 17
236 6 107 15 212 19 234 5 22 5 52 0 70 -5 17 -9 45 -9 62 l0 31 48 -24 c40
-21 58 -24 117 -21 78 4 125 23 182 73 45 40 36 37 66 26z m-408 -756 c22 -8
61 -14 86 -15 44 0 46 -1 41 -25 -4 -23 -9 -25 -51 -24 -58 1 -126 21 -125 37
3 32 4 42 7 42 1 0 20 -7 42 -15z m325 -76 c0 -20 -28 -29 -98 -29 -57 0 -92
13 -92 34 0 9 24 12 95 12 83 0 95 -2 95 -17z m-275 -39 c21 0 37 6 43 16 11
20 32 10 32 -16 0 -22 -19 -30 -71 -30 -61 0 -109 31 -88 56 8 10 15 8 30 -7
11 -11 33 -19 54 -19z m128 -20 c4 -16 14 -20 51 -20 32 0 48 5 52 15 9 22 34
18 34 -5 0 -28 -36 -43 -92 -38 -52 5 -97 36 -84 57 11 18 33 13 39 -9z m-148
-25 c23 -3 54 -1 70 5 28 11 28 10 12 -8 -9 -10 -17 -26 -17 -36 0 -19 -70
-54 -205 -101 -112 -40 -193 -39 -300 3 -44 18 -88 32 -97 32 -13 0 -18 8 -18
26 0 20 9 29 46 46 40 17 61 20 138 16 50 -3 100 -8 111 -12 16 -6 17 -6 5 3
-12 9 -10 11 10 11 14 0 40 -4 58 -9 20 -6 30 -6 27 0 -4 5 -13 9 -22 9 -27 0
-5 13 50 30 42 13 56 14 72 4 11 -7 38 -15 60 -19z m135 -20 c29 -17 113 -19
141 -4 15 7 28 6 51 -5 17 -9 41 -16 52 -16 20 -1 19 -2 -4 -15 l-25 -15 30 7
c17 5 82 8 145 8 98 0 120 -3 150 -21 49 -28 52 -54 7 -54 -20 0 -82 -16 -140
-35 -57 -19 -118 -35 -134 -35 -41 0 -128 27 -196 61 -32 17 -62 27 -67 24
-11 -7 -60 15 -60 27 0 5 10 2 22 -6 39 -28 41 -17 3 18 -31 30 -35 38 -25 55
13 25 17 25 50 6z m-61 -59 c-2 -2 -15 -7 -29 -10 l-25 -7 25 15 c21 12 42 14
29 2z m-524 -66 c47 -20 62 -29 45 -29 -37 -1 -92 17 -120 39 -36 28 -8 24 75
-10z m1145 -10 c0 -24 -127 -61 -209 -60 -30 1 -20 7 59 34 97 34 150 44 150
26z"/>
<path d="M380 2400 c-12 -8 -9 -9 11 -5 14 4 45 -1 69 -9 38 -13 41 -13 28 0
-19 20 -88 28 -108 14z"/>
<path d="M1053 2212 c-6 -4 20 -7 57 -7 37 0 63 3 57 7 -7 4 -32 8 -57 8 -25
0 -50 -4 -57 -8z"/>
<path d="M1057 2193 c-13 -12 -7 -41 9 -47 9 -3 33 -6 55 -6 43 0 60 20 39 45
-13 15 -90 21 -103 8z"/>
<path d="M1085 1830 c3 -5 11 -10 16 -10 6 0 7 5 4 10 -3 6 -11 10 -16 10 -6
0 -7 -4 -4 -10z"/>
<path d="M1090 1439 c0 -19 53 -97 84 -121 37 -30 34 -19 -5 22 -22 23 -48 57
-59 78 -10 20 -19 30 -20 21z"/>
<path d="M1210 882 c0 -5 7 -15 15 -22 8 -7 15 -8 15 -2 0 5 -7 15 -15 22 -8
7 -15 8 -15 2z"/>
</g>
</svg>
