<?xml version="1.0" standalone="no"?>
<!DOCTYPE svg PUBLIC "-//W3C//DTD SVG 20010904//EN"
 "http://www.w3.org/TR/2001/REC-SVG-20010904/DTD/svg10.dtd">
<svg version="1.0" id="Layer_1" xmlns="http://www.w3.org/2000/svg"
 width="435.000000pt" height="435.000000pt" viewBox="0 0 435.000000 435.000000"
 preserveAspectRatio="xMidYMid meet">

<g id="design-freepik" transform="translate(0.000000,435.000000) scale(0.100000,-0.100000)">
	<path d="M2005 4306 c-121 -40 -219 -120 -263 -214 -23 -49 -26 -71 -27 -152
	0 -114 18 -168 80 -245 l43 -52 -86 -6 c-135 -8 -248 -54 -359 -144 l-43 -34
	0 38 c-1 134 -82 263 -199 316 -60 28 -219 31 -267 5 -147 -80 -233 -262 -221
	-472 6 -120 33 -190 95 -251 92 -89 215 -123 335 -92 l57 15 0 -91 c0 -108 18
	-201 55 -289 15 -35 31 -88 35 -118 4 -30 13 -67 18 -81 16 -40 69 -97 118
	-125 24 -14 44 -27 44 -29 0 -2 -28 -17 -62 -35 -127 -65 -231 -160 -276 -250
	-22 -46 -36 -59 -77 -80 -53 -26 -95 -78 -95 -116 0 -14 -23 -45 -64 -86 -35
	-35 -76 -88 -92 -118 -26 -50 -29 -64 -29 -155 1 -138 22 -205 85 -268 31 -31
	56 -47 67 -45 10 2 44 -15 75 -38 63 -46 128 -64 154 -43 12 10 19 8 37 -8 37
	-35 107 -64 163 -70 47 -5 59 -2 95 21 43 29 78 90 99 176 8 33 19 50 40 62
	52 30 90 138 90 257 0 108 -71 210 -185 269 -32 16 -45 32 -64 76 l-23 55 21
	30 c59 82 196 152 311 159 l77 4 22 -51 c12 -28 24 -80 28 -114 11 -122 -30
	-391 -88 -582 -36 -115 -55 -155 -152 -322 l-72 -123 -50 0 c-62 -1 -124 -28
	-156 -68 l-24 -31 -80 25 c-56 17 -113 27 -190 31 -236 12 -428 -74 -502 -226
	-24 -48 -28 -68 -28 -141 0 -76 3 -91 30 -140 38 -68 123 -156 197 -204 32
	-20 99 -50 150 -68 79 -27 111 -32 217 -36 137 -5 221 6 341 45 108 35 236 97
	297 144 l53 41 52 -35 c234 -154 581 -219 812 -152 116 34 198 77 262 137 72
	68 94 116 94 204 0 58 -5 77 -29 119 -80 140 -269 227 -496 229 -60 1 -129 -2
	-153 -7 -40 -7 -43 -6 -53 20 -6 16 -17 35 -25 44 -14 15 -12 24 17 81 18 34
	49 103 70 153 36 87 39 90 81 103 114 36 199 85 223 131 13 26 12 44 -6 167
	-17 116 -19 151 -10 212 13 90 14 233 2 298 -15 76 -49 159 -78 190 -41 44
	-155 186 -151 189 2 1 57 38 123 82 163 109 256 185 363 298 84 88 93 95 129
	95 26 0 55 10 88 31 l48 31 66 -21 c36 -11 94 -22 127 -25 42 -4 121 -28 249
	-76 169 -64 190 -70 220 -60 44 14 67 42 68 82 2 27 7 35 32 43 54 18 82 118
	55 191 -8 20 -8 36 1 56 9 22 9 39 -2 76 -18 67 -97 140 -250 231 -163 98
	-258 162 -303 204 l-36 34 17 34 c46 90 20 248 -54 324 -46 48 -88 65 -157 65
	-48 0 -58 -3 -72 -25 -18 -28 -21 -93 -10 -240 l7 -90 -67 -75 c-75 -84 -120
	-170 -137 -260 -6 -33 -17 -60 -23 -60 -32 0 -80 -85 -90 -158 -6 -45 -16 -63
	-86 -148 -44 -53 -111 -129 -149 -168 l-68 -71 11 45 c12 55 5 143 -15 190 -9
	19 -23 69 -32 110 -29 125 -74 206 -187 329 l-68 75 44 17 c130 49 212 145
	251 294 19 74 19 122 0 203 -26 110 -126 232 -232 283 -56 27 -169 35 -228 15z
	m234 -45 c63 -33 142 -116 177 -186 27 -55 29 -69 29 -170 0 -104 -2 -114 -33
	-177 -40 -83 -120 -158 -197 -187 -31 -12 -62 -21 -70 -21 -8 0 -15 -3 -15 -7
	0 -5 41 -53 90 -108 50 -55 105 -129 124 -165 33 -63 72 -177 64 -186 -3 -2
	-22 5 -43 16 -46 23 -140 26 -197 6 l-37 -13 -6 66 c-17 166 -58 294 -121 377
	-30 39 -92 84 -139 103 -30 11 -30 11 9 7 l38 -5 -59 62 c-95 98 -108 131
	-108 262 0 100 2 115 27 160 43 81 122 145 216 176 78 26 190 21 251 -10z
	m1038 -287 c59 -47 88 -114 88 -204 0 -61 -5 -83 -23 -114 l-23 -39 33 -35
	c49 -51 114 -97 293 -206 212 -130 275 -191 275 -266 0 -31 -17 -39 -38 -18
	-20 20 -14 -2 10 -35 27 -38 38 -146 18 -183 -23 -41 -55 -31 -118 38 -58 63
	-126 118 -146 118 -6 0 3 -8 19 -19 79 -49 165 -162 165 -217 0 -35 -37 -74
	-70 -74 -19 0 -154 48 -282 99 -46 19 -117 37 -176 45 -166 24 -315 113 -368
	223 -27 54 -29 66 -29 178 0 110 2 125 27 178 30 64 69 118 131 184 l40 42 -7
	151 c-8 191 -7 194 80 188 52 -3 70 -9 101 -34z m-2122 -189 c54 -26 106 -81
	133 -139 31 -65 50 -194 35 -244 -5 -20 -22 -77 -37 -127 -52 -175 -43 -385
	22 -517 l28 -58 -24 -22 c-14 -13 -33 -36 -43 -52 l-18 -30 -19 45 c-38 88
	-55 180 -55 304 l-1 121 -40 -20 c-55 -28 -168 -33 -233 -12 -78 26 -144 82
	-178 151 -25 52 -30 73 -33 166 -2 58 1 130 7 160 24 114 89 212 181 271 43
	28 50 29 140 26 69 -2 106 -9 135 -23z m716 -212 c62 -28 121 -89 158 -162 32
	-62 71 -229 71 -303 0 -23 3 -53 6 -64 6 -21 7 -21 37 -5 19 9 65 17 112 19
	71 3 84 1 115 -20 109 -73 106 -255 -9 -446 -48 -81 -138 -191 -180 -221 l-30
	-22 14 35 c16 38 20 100 6 92 -4 -3 -11 -21 -14 -40 -8 -47 -55 -145 -85 -179
	-22 -23 -33 -27 -81 -27 -58 0 -169 30 -208 55 -26 18 -33 19 -33 5 0 -6 24
	-22 53 -35 l52 -25 -65 0 c-85 0 -266 42 -349 80 -149 70 -205 183 -150 298
	12 24 36 53 53 64 l32 21 -32 55 c-46 75 -59 144 -59 302 1 99 6 154 19 205
	29 110 60 171 95 189 34 18 97 21 134 7 23 -9 26 -6 42 37 21 57 31 70 70 94
	40 26 159 21 226 -9z m-288 -5 c-6 -7 -16 -29 -22 -49 l-12 -36 -64 1 c-63 1
	-64 1 -42 18 27 22 129 77 141 78 5 0 4 -6 -1 -12z m1321 -483 c19 -45 88
	-118 148 -157 l49 -32 -38 -23 c-66 -40 -136 -26 -211 41 -81 71 -85 253 -9
	334 l21 23 13 -76 c7 -41 19 -91 27 -110z m-105 -145 c10 -19 41 -50 69 -69
	l51 -34 -19 -27 c-75 -105 -228 -235 -437 -370 -73 -47 -132 -87 -132 -90 -1
	-3 28 -39 63 -80 35 -41 64 -76 63 -77 -1 0 -36 6 -77 14 -105 20 -249 13
	-315 -16 -69 -31 -147 -92 -195 -152 -33 -43 -41 -48 -46 -32 -4 10 -15 37
	-25 61 -18 42 -18 42 -71 42 -140 0 -282 -68 -367 -176 l-20 -26 -33 24 c-29
	20 -45 23 -125 23 -51 0 -93 2 -93 5 0 3 15 30 33 60 42 70 150 160 252 211
	l81 40 109 -32 c102 -30 123 -32 290 -36 168 -4 182 -3 213 16 18 12 41 35 51
	51 10 17 52 62 93 100 73 68 154 174 198 259 12 24 76 103 142 175 67 72 139
	155 162 184 l41 53 12 -33 c7 -18 21 -49 32 -68z m-426 -759 c116 -23 132 -31
	156 -79 51 -101 68 -279 41 -445 -8 -54 -7 -85 4 -150 8 -45 17 -102 21 -128
	l6 -45 -35 4 c-45 5 -89 -9 -209 -69 -75 -37 -97 -45 -93 -31 2 9 8 40 11 69
	6 48 10 53 58 85 28 18 53 39 55 47 3 7 -16 0 -41 -18 -25 -17 -49 -31 -52
	-31 -4 0 -5 18 -4 40 3 41 -14 58 -19 18 -3 -35 -23 -170 -28 -194 -3 -20 -11
	-22 -141 -27 -115 -4 -318 -32 -385 -53 -15 -5 -14 3 8 62 59 157 111 423 121
	617 l6 131 71 72 c133 134 247 166 449 125z m-1093 -264 c27 -13 90 -91 90
	-111 0 -9 -26 -6 -92 12 -107 27 -188 26 -281 -6 -56 -19 -57 -19 -57 0 0 37
	22 60 83 89 54 25 74 29 147 29 48 0 96 -6 110 -13z m16 -132 c147 -39 236
	-99 284 -193 20 -38 22 -54 18 -140 -5 -100 -25 -161 -63 -192 -15 -12 -19
	-12 -31 5 -13 18 -14 17 -14 -8 0 -55 -51 -190 -85 -224 -29 -29 -39 -33 -86
	-33 -66 0 -131 28 -181 78 -35 33 -38 34 -38 14 0 -51 -123 -7 -178 63 -12 15
	-22 23 -22 16 0 -25 -45 -9 -81 28 -44 47 -69 137 -69 253 0 90 34 169 104
	241 111 113 249 142 442 92z m1288 -484 c14 -22 -122 -103 -195 -118 -30 -6
	-32 -5 -26 18 4 13 7 29 7 36 0 11 68 48 120 66 25 9 88 8 94 -2z m-268 -159
	c-37 -110 -170 -378 -195 -391 -25 -14 -114 -14 -162 -1 -67 19 -67 29 -5 132
	105 177 124 198 189 218 61 19 127 62 127 84 0 11 61 48 69 40 1 -1 -9 -38
	-23 -82z m-90 53 c13 -12 10 -17 -23 -39 -21 -14 -67 -32 -103 -40 -68 -16
	-174 -21 -168 -8 2 4 10 24 17 44 13 33 20 38 55 43 23 2 52 6 66 9 65 9 142
	5 156 -9z m-296 -22 c0 -4 -36 -80 -80 -168 -85 -173 -125 -227 -179 -244 -69
	-22 -175 -9 -187 23 -3 8 39 89 96 185 l102 170 52 11 c132 29 196 36 196 23z
	m105 -110 c-2 -7 -27 -47 -55 -88 l-51 -75 -50 0 c-28 0 -49 3 -47 8 2 4 22
	43 44 87 l42 80 61 0 c45 0 60 -3 56 -12z m-125 -200 c0 -5 -7 -17 -15 -27 -8
	-11 -15 -33 -15 -48 0 -25 7 -32 46 -50 104 -45 210 -32 248 32 9 17 21 30 26
	30 18 0 32 -42 26 -76 -7 -35 -50 -94 -69 -94 -6 0 -30 -10 -55 -21 -36 -18
	-56 -21 -115 -16 -41 3 -94 14 -123 27 l-52 22 5 62 c4 46 1 71 -11 94 -20 38
	-20 37 0 56 16 16 104 23 104 9z m-432 -10 c-2 -5 -10 -20 -17 -35 -29 -58 16
	-90 127 -91 85 0 140 18 167 55 13 20 17 21 25 8 15 -23 23 -77 16 -104 -15
	-60 -116 -116 -209 -116 -128 0 -297 92 -297 162 0 34 40 94 74 111 31 16 121
	23 114 10z m-346 -49 c85 -19 141 -41 134 -53 -3 -4 -1 -22 3 -39 l9 -30 -40
	14 c-47 16 -88 18 -88 4 0 -5 11 -10 24 -10 39 0 105 -27 168 -70 33 -22 65
	-40 72 -40 6 0 34 -20 63 -45 60 -53 92 -60 43 -10 l-33 34 39 -10 c65 -19
	160 3 254 58 3 2 13 -10 23 -26 12 -20 17 -51 17 -98 0 -157 -113 -269 -371
	-366 -257 -97 -528 -83 -730 39 -74 45 -164 141 -196 210 -22 49 -25 66 -21
	133 3 50 12 89 26 116 49 95 175 176 302 193 104 15 226 13 302 -4z m1444 -75
	c163 -29 309 -115 362 -213 24 -44 21 -150 -6 -201 -22 -44 -96 -118 -152
	-152 -65 -40 -212 -83 -307 -89 -102 -8 -242 12 -382 53 -87 25 -235 95 -284
	135 l-28 23 24 35 c38 55 49 104 45 191 -1 43 0 79 5 79 4 0 30 -6 59 -15 28
	-8 67 -15 87 -15 l34 0 -21 -23 c-40 -43 -23 -52 21 -11 23 22 60 46 82 53 22
	8 47 19 55 27 9 8 46 14 90 16 86 3 99 23 15 23 -30 0 -54 2 -52 5 2 3 9 20
	16 38 13 31 21 36 81 45 53 9 199 6 256 -4z"/>
	<path d="M3073 3329 c-45 -22 -70 -46 -59 -56 3 -3 14 1 24 10 49 44 151 60
	215 33 18 -7 49 -32 69 -55 35 -42 48 -50 48 -30 0 23 -54 79 -94 98 -57 28
	-147 28 -203 0z"/>
	<path d="M1669 3304 c-7 -9 -15 -47 -17 -85 -5 -84 23 -185 68 -248 18 -24 30
	-44 28 -45 -2 -1 -14 -7 -28 -13 -25 -10 -25 -9 -37 60 -14 85 -71 205 -114
	241 -52 44 -101 20 -114 -54 -13 -74 52 -259 107 -305 28 -24 28 -25 12 -50
	-27 -41 2 -30 65 25 63 55 133 84 228 95 70 9 97 20 70 30 -9 4 -29 5 -43 2
	-25 -4 -26 -3 -21 34 3 22 -1 68 -8 104 -28 131 -90 225 -150 225 -18 0 -39
	-7 -46 -16z m113 -63 c26 -42 58 -127 58 -156 0 -7 -10 -10 -23 -8 -35 7 -50
	-18 -45 -77 2 -30 -1 -49 -7 -47 -5 2 -25 33 -44 69 -28 56 -34 79 -38 155 -5
	73 -3 92 11 105 24 25 55 10 88 -41z m-232 -41 c25 -14 65 -82 90 -155 24 -70
	25 -81 4 -61 -43 44 -90 -21 -64 -89 11 -29 11 -29 -9 -10 -28 24 -66 108 -80
	173 -25 121 -3 175 59 142z"/>
	<path d="M2125 2910 c-4 -6 7 -10 26 -10 31 0 31 -1 25 -37 -4 -21 -24 -74
	-45 -118 -50 -106 -133 -190 -238 -242 -72 -36 -83 -38 -167 -38 -94 1 -129 9
	-229 53 -40 17 -55 28 -47 36 5 5 10 17 10 25 0 12 -5 11 -21 -5 -22 -22 -33
	-107 -14 -111 6 -1 9 5 7 14 -6 26 7 47 21 35 16 -13 153 -62 175 -62 9 -1 26
	-15 37 -33 27 -43 148 -123 206 -137 96 -23 192 37 248 155 26 55 55 252 40
	271 -6 7 1 38 16 78 14 36 25 78 25 91 0 29 8 31 36 10 31 -23 40 -17 14 10
	-19 20 -33 25 -71 25 -26 0 -51 -4 -54 -10z m9 -273 c-7 -45 -8 -47 -41 -47
	l-33 0 37 49 c21 26 39 47 41 46 1 -1 -1 -23 -4 -48z m-16 -117 c-6 -59 -58
	-150 -107 -189 -47 -36 -138 -37 -193 -3 -32 20 -36 26 -28 43 12 22 102 76
	142 84 15 4 38 21 52 39 24 32 96 76 125 76 10 0 12 -12 9 -50z m-319 -110
	c-24 -21 -47 -39 -50 -40 -4 0 -22 15 -40 33 l-34 32 70 6 c39 3 76 6 84 7 7
	1 -6 -16 -30 -38z"/>
	<path d="M1760 2871 c-44 -14 -84 -38 -117 -73 -62 -64 -66 -127 -11 -173 53
	-45 187 -29 266 32 63 48 89 122 61 175 -22 40 -127 61 -199 39z m157 -36 c29
	-20 37 -59 19 -94 -53 -101 -224 -154 -292 -90 -48 45 -19 119 68 168 44 26
	64 31 118 31 42 0 73 -5 87 -15z"/>
	<path d="M2401 2083 c-54 -45 -25 -221 49 -295 43 -44 49 -45 81 -19 21 17 24
	28 24 88 -1 85 -27 163 -70 208 -36 39 -53 43 -84 18z m72 -45 c51 -68 77
	-219 43 -247 -39 -33 -105 74 -114 184 -7 96 25 125 71 63z"/>
	<path d="M2142 2067 c-20 -24 -31 -99 -22 -147 24 -127 95 -239 142 -225 46
	14 53 31 53 118 -1 95 -28 176 -77 233 -32 36 -76 46 -96 21z m107 -89 c24
	-48 35 -85 38 -132 7 -87 -1 -116 -32 -116 -46 0 -98 98 -110 206 -9 79 5 116
	43 112 22 -2 33 -14 61 -70z"/>
	<path d="M1157 1708 c-13 -50 -20 -158 -10 -158 12 0 34 162 24 173 -5 5 -11
	-2 -14 -15z"/>
	<path d="M941 1680 c-39 -54 -57 -98 -44 -111 8 -8 14 0 22 24 7 20 25 54 42
	76 32 44 34 51 19 51 -5 0 -23 -18 -39 -40z"/>
	<path d="M1035 1655 c-30 -66 -46 -165 -26 -165 6 0 11 15 11 35 0 19 12 64
	26 100 33 83 25 108 -11 30z"/>
	<path d="M1492 1345 c0 -16 2 -22 5 -12 2 9 2 23 0 30 -3 6 -5 -1 -5 -18z"/>
</g>
</svg>
