<?xml version="1.0" standalone="no"?>
<!DOCTYPE svg PUBLIC "-//W3C//DTD SVG 20010904//EN"
 "http://www.w3.org/TR/2001/REC-SVG-20010904/DTD/svg10.dtd">
<svg version="1.0" xmlns="http://www.w3.org/2000/svg"
 width="920.000000pt" height="920.000000pt" viewBox="0 0 920.000000 920.000000"
 preserveAspectRatio="xMidYMid meet">

<g transform="translate(0.000000,920.000000) scale(0.100000,-0.100000)"
fill="#000000" stroke="none">
<path d="M5407 8994 c-161 -29 -313 -96 -397 -176 -19 -18 -92 -103 -162 -188
-165 -202 -339 -401 -358 -410 -8 -4 -28 -14 -45 -21 -16 -8 -73 -57 -126
-109 -95 -94 -146 -169 -164 -245 -5 -24 -26 -43 -105 -94 -170 -110 -312
-256 -379 -387 -40 -80 -67 -198 -51 -224 7 -12 20 -3 60 42 61 68 126 103
175 94 45 -9 103 -75 134 -155 28 -70 51 -81 51 -23 0 110 86 322 199 491 8
12 17 11 59 -7 28 -12 86 -27 129 -33 43 -6 79 -12 81 -14 2 -2 -10 -29 -26
-61 -16 -33 -35 -76 -41 -96 -7 -21 -26 -47 -43 -59 -17 -12 -39 -40 -49 -63
-20 -44 -25 -102 -9 -108 6 -2 4 -19 -5 -43 -18 -52 -19 -139 0 -201 20 -69
54 -471 65 -777 6 -142 15 -279 21 -305 11 -50 64 -127 111 -162 23 -17 26
-24 18 -40 -14 -26 -12 -99 4 -153 l14 -45 -122 -126 c-99 -103 -126 -126
-149 -126 -21 0 -47 -17 -101 -67 -40 -38 -81 -82 -91 -99 -18 -32 -94 -82
-400 -269 -82 -51 -211 -127 -285 -170 -333 -192 -420 -290 -428 -475 -4 -101
16 -172 72 -250 l36 -50 -29 -15 c-16 -8 -38 -25 -48 -39 l-19 -24 -54 34
c-64 40 -129 66 -242 94 -107 28 -186 70 -243 131 -38 41 -45 54 -45 89 0 29
-4 40 -12 37 -15 -4 -18 -178 -5 -236 l7 -35 -26 25 c-39 36 -110 139 -133
192 -11 26 -25 47 -31 47 -14 0 -13 -10 5 -61 31 -87 63 -236 69 -319 13 -183
65 -401 140 -585 18 -44 36 -104 40 -134 13 -97 95 -326 172 -478 131 -256
217 -382 315 -462 30 -24 57 -52 61 -61 8 -23 84 -375 99 -463 6 -37 9 -74 6
-81 -5 -12 -29 -14 -134 -9 -159 7 -667 -12 -862 -32 -176 -18 -343 -49 -419
-77 -96 -35 -226 -192 -239 -287 -7 -53 13 -84 76 -116 54 -27 65 -39 153
-175 90 -138 146 -190 243 -228 94 -36 234 -72 394 -102 63 -12 129 -29 145
-37 17 -9 58 -44 91 -78 46 -47 74 -67 119 -84 114 -42 204 -39 421 15 115 29
464 142 565 184 137 57 322 206 369 297 54 107 79 327 45 398 -24 51 -214 215
-249 215 -5 0 -25 55 -44 123 -19 67 -54 181 -77 252 -24 72 -44 132 -44 135
0 3 41 3 92 1 112 -4 306 13 448 40 243 46 408 102 650 221 l124 61 21 -28
c148 -206 429 -505 580 -618 78 -58 191 -127 209 -127 19 0 1 23 -30 38 l-36
17 33 7 c19 4 212 13 430 19 612 18 969 -5 1200 -77 146 -45 201 -99 203 -197
1 -78 -33 -136 -146 -252 -78 -80 -106 -117 -139 -182 -46 -94 -72 -119 -179
-173 -97 -49 -184 -67 -390 -80 -254 -16 -291 -23 -429 -80 -182 -76 -234 -84
-384 -65 -68 9 -160 29 -211 46 -169 56 -425 198 -614 339 -171 127 -254 231
-268 334 -8 59 17 143 59 190 l33 39 49 -56 c64 -70 144 -141 152 -133 3 3
-29 41 -72 83 -144 143 -347 420 -479 656 -26 48 -52 84 -57 81 -20 -12 164
-312 319 -518 l74 -98 -26 -27 c-13 -14 -37 -52 -52 -85 -23 -50 -26 -68 -22
-121 12 -142 116 -258 404 -451 143 -95 392 -223 503 -258 42 -13 131 -32 199
-41 149 -21 208 -14 339 40 198 81 216 86 388 96 304 18 382 32 500 93 108 55
138 84 180 174 29 60 56 97 125 167 112 115 146 163 161 230 17 76 -1 136 -57
191 -81 78 -321 135 -659 155 -204 13 -863 5 -1072 -12 l-131 -11 -51 34
c-111 75 -261 218 -431 411 -63 71 -200 252 -199 262 0 5 32 30 72 55 45 28
128 101 225 198 149 147 156 152 196 152 122 1 230 54 353 175 l95 92 61 -22
c90 -33 194 -47 257 -35 71 14 176 71 239 131 60 57 92 120 122 240 48 189 0
309 -134 334 -27 5 -37 12 -37 26 0 10 -7 22 -15 26 -11 7 4 21 61 58 144 94
260 245 311 402 51 160 16 318 -97 437 -73 78 -174 141 -334 211 -165 73 -271
126 -381 192 -67 41 -84 57 -110 103 -38 68 -83 100 -140 100 -38 0 -50 7
-128 76 -48 42 -87 80 -87 85 0 5 -6 9 -14 9 -8 0 -30 34 -50 75 -38 81 -116
199 -166 252 l-30 32 25 17 c30 20 124 159 221 329 38 66 73 123 79 127 5 4
41 8 78 8 54 0 75 -5 98 -21 70 -50 205 -79 364 -79 195 1 287 27 321 92 26
51 12 94 -44 129 -64 40 -125 57 -256 69 -311 29 -340 35 -351 71 -9 26 -2 33
60 69 59 34 67 53 53 121 -6 31 -2 49 28 110 57 117 104 270 122 397 9 65 22
122 28 127 7 6 22 46 34 90 44 170 43 284 -3 333 -19 20 -29 23 -79 20 l-57
-3 -51 82 c-57 92 -138 185 -199 228 l-41 28 53 57 c28 31 67 82 86 113 41 70
135 300 157 387 36 141 -6 283 -114 388 -130 128 -278 165 -495 126z m244 -14
c134 -25 265 -126 323 -249 27 -58 31 -76 30 -151 -1 -72 -7 -102 -38 -190
-61 -172 -140 -323 -205 -392 l-56 -59 -85 39 c-118 55 -175 67 -315 67 -176
-1 -307 -43 -475 -153 -72 -48 -216 -193 -260 -264 -19 -31 -41 -59 -48 -62
-22 -10 -161 13 -212 35 -91 39 -147 127 -138 213 10 81 55 155 159 259 95 94
137 124 103 72 -83 -126 261 255 488 541 31 39 75 88 97 110 142 135 436 221
632 184z m-146 -981 c221 -68 367 -199 484 -434 33 -66 60 -113 61 -104 0 9
-7 34 -16 54 -18 45 -10 55 48 55 28 0 42 -6 57 -26 28 -36 28 -148 1 -263
-27 -111 -39 -131 -40 -64 0 57 -14 73 -63 73 -33 0 -118 -77 -163 -147 -45
-71 -139 -260 -199 -403 l-49 -116 -79 41 c-78 39 -81 40 -183 39 -58 0 -103
2 -102 6 2 3 28 55 60 115 87 170 172 396 199 530 18 91 16 221 -4 281 -18 53
-56 97 -94 108 -64 20 -247 -46 -330 -118 -91 -80 -262 -383 -347 -618 -22
-60 -42 -108 -46 -108 -4 0 -15 30 -25 68 -25 93 -58 154 -102 191 -54 45 -94
53 -149 33 -24 -9 -44 -20 -44 -24 0 -4 -7 -8 -15 -8 -20 0 -19 30 1 81 23 56
76 88 159 96 38 3 62 10 58 16 -3 5 -31 7 -64 4 -46 -4 -59 -2 -59 9 0 31 118
239 177 314 142 177 332 296 538 336 95 18 241 11 330 -17z m-1313 -335 c12
-18 26 -34 31 -34 15 0 6 -20 -47 -104 -66 -104 -122 -236 -144 -334 l-16 -74
-24 49 c-41 81 -101 133 -154 133 -37 -1 -104 -35 -152 -81 -53 -48 -57 -40
-30 52 45 151 200 328 414 471 l74 50 12 -47 c7 -25 23 -62 36 -81z m1262 37
c39 -33 57 -96 57 -194 1 -143 -42 -300 -146 -541 -37 -88 -123 -255 -141
-275 -10 -12 -177 -41 -234 -41 -62 0 -140 15 -140 27 0 3 20 28 45 55 102
114 150 244 143 385 -4 70 -8 87 -28 108 -29 31 -72 33 -117 5 -18 -11 -33
-15 -33 -10 0 28 154 288 206 349 102 118 318 192 388 132z m614 -516 c3 -94
-14 -188 -69 -366 -55 -180 -78 -239 -94 -239 -8 0 -35 -11 -61 -25 -26 -14
-56 -25 -67 -25 -18 0 -19 2 -5 18 44 49 89 172 90 245 1 48 -27 77 -73 77
-16 0 -29 3 -29 6 0 3 30 65 67 138 52 100 82 146 129 194 47 49 67 63 85 60
23 -3 24 -7 27 -83z m-1539 -20 c53 -27 92 -89 123 -198 76 -260 137 -326 308
-335 69 -3 115 2 240 28 111 23 170 30 208 27 77 -8 171 -56 245 -125 63 -59
66 -60 108 -55 24 3 65 16 90 29 44 22 45 22 57 3 7 -10 12 -38 12 -62 0 -39
-3 -44 -37 -62 -84 -45 -100 -76 -67 -123 l15 -22 -64 0 c-99 0 -277 -12 -277
-19 0 -4 132 -7 293 -7 414 -1 584 -26 659 -96 26 -24 29 -33 24 -61 -7 -39
-43 -72 -94 -87 -62 -18 -270 -24 -362 -11 -82 12 -175 42 -195 63 -14 15 195
3 365 -22 74 -10 137 -16 140 -14 15 16 -48 28 -300 55 -102 11 -318 9 -701
-7 -109 -5 -171 -3 -204 5 -65 16 -175 101 -283 218 -206 224 -275 351 -302
556 -7 49 -9 91 -5 95 4 4 20 -8 36 -27 30 -36 49 -38 30 -3 -21 40 -71 72
-111 72 -21 0 -42 -4 -45 -10 -4 -6 6 -10 23 -10 30 0 30 -1 36 -67 3 -38 11
-232 16 -433 11 -377 23 -559 40 -621 16 -57 51 -101 109 -136 80 -48 164 -63
347 -63 193 0 212 7 315 118 65 71 176 234 187 274 3 13 14 18 38 18 19 0 34
-2 34 -4 0 -6 -152 -265 -192 -326 -75 -116 -130 -151 -268 -170 -108 -15
-236 -6 -360 26 -115 30 -175 62 -239 126 -77 77 -82 94 -92 312 -12 248 -48
753 -60 819 -5 29 -14 79 -20 112 -18 91 -6 151 41 197 42 43 88 50 139 23z
m48 -564 c43 -95 99 -173 217 -304 52 -58 92 -107 89 -110 -3 -4 5 -43 17 -89
17 -62 21 -97 16 -140 -6 -58 -6 -58 22 -58 67 0 212 85 212 125 0 9 40 14
168 17 92 3 169 4 170 2 6 -5 -75 -138 -122 -200 -57 -77 -137 -151 -181 -170
-42 -17 -291 -20 -380 -3 -60 11 -145 48 -179 78 -26 23 -52 78 -65 138 -6 28
-15 179 -21 335 -17 483 -18 504 -7 478 5 -14 25 -58 44 -99z m395 -478 c41
-35 109 -73 132 -73 74 0 -47 -107 -143 -126 l-28 -6 5 55 c4 49 -2 79 -35
192 -5 18 -4 19 13 5 10 -8 36 -29 56 -47z m-341 -524 c24 -12 55 -25 68 -28
19 -5 27 -18 37 -59 21 -80 41 -112 113 -177 124 -113 216 -212 267 -286 54
-78 150 -249 140 -249 -3 0 -24 13 -46 29 -22 16 -63 34 -90 41 -45 11 -54 10
-94 -10 -42 -20 -71 -59 -88 -119 -2 -9 -16 5 -32 34 -35 60 -190 216 -276
279 -85 63 -169 105 -225 113 l-44 6 107 114 c114 121 110 119 142 63 5 -8 11
-12 14 -9 4 3 -7 35 -24 70 -32 69 -46 142 -36 183 8 31 11 32 67 5z m628
-193 c0 -151 5 -206 21 -206 5 0 6 37 3 83 -5 79 -4 81 12 59 55 -74 121 -280
154 -477 12 -71 26 -139 30 -150 10 -24 4 -45 -13 -45 -6 0 -29 -9 -49 -19
l-37 -19 -29 41 c-15 23 -53 94 -84 158 -96 200 -211 351 -366 483 -56 48 -96
90 -113 122 -26 48 -45 114 -34 114 4 0 50 -7 104 -16 110 -18 267 -14 342 10
25 8 48 14 52 15 5 1 8 -68 7 -153z m142 -3 c64 -95 98 -172 112 -259 8 -51
15 -70 24 -67 7 3 13 -1 13 -9 0 -8 14 -27 30 -43 17 -16 30 -32 30 -36 0 -4
-16 -31 -35 -60 -19 -29 -44 -82 -56 -117 -12 -35 -23 -62 -24 -60 -2 2 -11
46 -20 98 -37 218 -96 402 -160 498 -31 48 -35 61 -35 121 0 37 3 71 6 74 8 8
49 -42 115 -140z m262 -379 l-28 -23 -46 48 c-37 39 -48 58 -54 97 l-7 48 82
-74 81 -73 -28 -23z m-1205 108 c113 -43 357 -250 427 -362 15 -25 31 -47 35
-50 4 -3 10 -54 12 -115 3 -60 9 -119 13 -130 6 -18 5 -18 -7 -4 -20 24 -165
149 -253 218 -187 149 -388 264 -497 284 -32 7 -58 16 -58 22 0 5 33 42 72 82
l72 73 68 0 c41 0 87 -7 116 -18z m1368 -121 c72 -44 97 -137 92 -351 l-3
-145 -30 -3 c-40 -4 -106 -33 -99 -43 3 -5 21 -2 41 6 90 38 138 6 167 -112
44 -173 40 -237 -20 -310 -61 -74 -140 -76 -217 -4 l-40 38 21 45 c43 87 24
240 -48 393 -45 96 -82 135 -139 142 -47 6 -48 11 -27 90 31 115 93 213 161
255 39 23 102 23 141 -1z m-1570 -80 c130 -51 312 -171 506 -332 145 -122 205
-183 234 -242 15 -29 34 -61 44 -72 14 -16 19 -45 23 -140 8 -183 42 -267 127
-314 85 -47 213 -26 268 43 22 28 55 109 71 172 l11 41 75 -3 c74 -3 77 -4
126 -48 52 -47 114 -72 154 -62 12 3 38 17 58 30 l36 25 12 -57 c16 -79 5
-304 -20 -415 -32 -139 -97 -323 -156 -443 -59 -119 -71 -163 -29 -100 40 58
98 187 140 311 20 61 39 112 41 115 9 10 24 -29 44 -117 16 -72 20 -115 17
-191 -3 -90 -7 -106 -41 -174 -26 -53 -62 -102 -121 -164 -143 -152 -248 -197
-441 -190 -276 9 -438 88 -685 336 -103 103 -197 231 -340 460 l-53 85 12 56
c6 30 11 76 11 102 0 26 4 47 9 47 16 0 121 -123 174 -202 44 -68 67 -93 67
-72 0 22 -125 192 -186 253 -41 40 -74 78 -74 85 0 18 -50 119 -68 139 -12 13
-20 50 -27 120 -6 64 -15 102 -22 105 -9 2 -13 -9 -13 -35 0 -103 -49 -291
-111 -423 -55 -118 -138 -239 -169 -247 -33 -9 -196 -10 -205 -2 -3 4 12 37
34 73 104 169 185 369 197 483 l6 58 122 58 c97 46 140 60 216 72 116 19 223
50 240 70 16 20 13 19 -72 -9 -40 -14 -98 -28 -128 -31 l-55 -7 109 66 c165
100 288 196 250 196 -4 0 -25 -15 -48 -34 -122 -100 -410 -258 -703 -387 -69
-30 -119 -57 -114 -62 5 -5 38 5 76 22 37 17 72 31 78 31 32 0 -41 -232 -124
-389 -85 -162 -110 -197 -140 -193 -37 4 -199 85 -286 143 -198 132 -321 247
-365 339 -59 121 -48 276 25 372 60 78 164 151 512 355 66 39 210 128 320 197
228 143 232 144 351 97z m1765 -112 c92 -56 252 -135 397 -197 326 -140 460
-338 396 -585 -38 -147 -154 -308 -287 -399 -82 -56 -196 -108 -236 -108 -92
0 -180 61 -228 158 -24 50 -29 73 -34 177 -3 66 -5 121 -4 123 1 1 35 -13 76
-32 41 -19 91 -37 112 -41 27 -5 50 -20 75 -48 38 -41 85 -67 122 -67 11 0 20
5 20 10 0 6 -9 10 -20 10 -27 0 -70 22 -94 49 l-19 21 61 0 c35 0 62 4 62 10
0 6 -19 10 -42 10 -115 0 -330 73 -361 122 -7 11 -6 25 5 49 31 64 31 116 4
238 -26 116 -43 155 -79 180 -13 10 -17 20 -12 38 8 33 8 294 -1 316 -3 9 -4
17 -2 17 3 0 43 -23 89 -51z m-850 10 c49 -24 141 -126 184 -203 35 -64 96
-198 110 -245 l7 -24 -35 21 c-36 23 -121 31 -132 12 -4 -6 12 -10 42 -10 60
0 103 -25 140 -81 23 -35 29 -56 31 -118 6 -124 -44 -276 -105 -319 -67 -47
-169 -48 -235 -1 -64 46 -97 168 -98 354 0 132 -7 195 -22 195 -7 0 -8 -21 -3
-55 3 -30 4 -55 0 -55 -3 0 -27 43 -52 96 -44 90 -47 101 -51 198 -5 119 11
186 56 228 44 42 91 44 163 7z m440 -215 c86 -82 155 -347 118 -452 -19 -55
-62 -70 -151 -56 l-38 7 0 66 c0 51 -6 77 -25 113 -14 26 -25 56 -25 67 0 22
-48 148 -81 213 -11 22 -18 42 -15 45 16 17 88 33 134 30 42 -3 59 -10 83 -33z
m-3053 -742 c31 -16 102 -42 157 -56 127 -34 241 -87 256 -119 9 -20 7 -36
-10 -83 -51 -136 -68 -341 -35 -437 20 -59 69 -103 126 -112 31 -5 50 -16 70
-40 56 -67 171 -95 263 -65 31 10 38 9 61 -9 17 -13 41 -21 67 -21 91 0 364
116 527 224 101 68 241 204 275 269 11 20 22 37 26 37 3 0 60 -85 127 -189
114 -176 223 -316 303 -386 139 -122 231 -190 316 -234 49 -24 179 -56 271
-66 34 -4 62 -12 62 -17 0 -6 -58 -69 -129 -139 -148 -148 -244 -215 -456
-319 -157 -77 -290 -128 -428 -165 -188 -51 -443 -86 -601 -84 -138 2 -132 -2
-180 121 -43 108 -73 164 -83 155 -3 -3 6 -30 20 -59 13 -29 37 -87 52 -128
15 -41 35 -95 45 -120 22 -54 111 -344 141 -455 21 -79 39 -117 39 -81 0 16 3
16 39 -5 61 -37 178 -147 195 -184 32 -67 8 -274 -43 -373 -46 -90 -177 -202
-316 -270 -140 -70 -557 -202 -750 -237 -167 -32 -282 -1 -380 100 -33 34 -71
68 -83 74 -13 7 -105 30 -205 51 -220 46 -357 89 -420 131 -55 36 -105 97
-190 230 -52 83 -70 103 -112 125 -69 37 -85 53 -85 83 0 68 116 233 190 271
84 43 259 77 515 100 182 16 675 31 811 24 l120 -7 23 -42 c37 -70 119 -120
256 -156 80 -21 95 -23 95 -10 0 5 -33 17 -72 26 -122 28 -218 78 -250 132 -9
16 -22 67 -28 113 -6 47 -27 159 -46 250 -20 91 -42 197 -49 235 -22 108 -87
359 -96 369 -15 17 -10 -25 20 -149 16 -66 28 -122 25 -124 -8 -8 -77 54 -120
107 -63 80 -134 199 -224 376 -82 164 -138 321 -169 477 -11 54 -26 108 -34
120 -50 78 -132 413 -143 580 -3 52 -12 119 -20 150 -20 83 -18 86 25 32 56
-69 128 -136 139 -129 5 3 -1 27 -16 55 -15 32 -26 75 -30 117 l-5 66 47 -50
c25 -27 72 -63 104 -80z m1697 16 c-9 -98 -32 -232 -52 -292 -18 -57 -71 -120
-124 -147 -60 -30 -63 -23 -18 42 23 34 61 103 85 153 41 86 94 248 94 285 0
17 8 31 17 31 2 0 1 -33 -2 -72z m81 -107 c43 -121 25 -250 -50 -363 -47 -72
-172 -191 -262 -250 -149 -98 -431 -218 -513 -218 -42 0 -67 26 -124 131 -74
136 -99 211 -100 307 -2 80 -1 85 26 107 15 14 45 29 66 36 34 10 42 9 77 -14
64 -40 175 -93 234 -111 30 -10 61 -19 68 -22 16 -5 -5 -49 -37 -78 -20 -18
-21 -18 -51 8 -18 14 -36 23 -42 20 -6 -4 0 -15 15 -28 31 -26 47 -57 47 -90
0 -14 5 -28 10 -31 6 -4 10 11 10 38 0 35 6 49 29 71 16 16 35 41 41 57 11 26
17 29 59 29 186 1 324 66 372 176 23 54 59 226 59 281 0 79 27 56 66 -56z
m-1206 -18 c0 -5 13 -17 29 -28 39 -26 46 -53 17 -65 -38 -14 -85 -80 -108
-150 -27 -85 -36 -282 -15 -355 8 -27 16 -57 18 -65 5 -20 -38 -15 -71 9 -46
33 -64 78 -68 174 -11 232 86 486 186 487 6 0 12 -3 12 -7z m2970 -167 c23
-24 61 -53 86 -63 24 -10 44 -21 44 -24 0 -9 -115 -29 -160 -29 -20 0 -42 8
-55 20 -20 19 -21 22 -7 97 20 110 21 113 37 76 7 -18 32 -52 55 -77z m-2779
13 l71 -52 -36 -12 c-80 -28 -101 -69 -91 -178 8 -95 18 -126 89 -267 l55
-108 -31 -11 c-17 -6 -56 -11 -88 -11 -95 0 -172 64 -211 175 -23 66 -18 285
8 363 54 162 114 188 234 101z m3118 -83 c16 -19 6 -24 -71 -42 -34 -8 -87
-28 -119 -46 l-59 -31 -20 24 c-10 13 -19 27 -20 30 0 3 28 11 63 18 34 7 89
23 122 36 73 27 89 29 104 11z m-438 -49 c-1 -12 -15 -9 -19 4 -3 6 1 10 8 8
6 -3 11 -8 11 -12z m564 -26 c91 -51 97 -224 15 -406 -42 -93 -123 -165 -240
-214 -48 -21 -66 -23 -145 -18 -72 4 -205 35 -223 52 -2 1 11 25 28 51 44 70
64 145 63 244 -1 73 -26 214 -48 271 -5 13 3 17 39 22 25 4 52 4 61 1 21 -8
99 -112 130 -174 32 -64 55 -151 55 -212 0 -26 4 -49 9 -53 17 -10 19 8 10 88
-9 82 -43 177 -86 241 l-26 40 29 23 c52 41 190 76 264 66 19 -3 48 -13 65
-22z"/>
<path d="M5280 8155 c-202 -32 -414 -144 -597 -318 -82 -77 -157 -166 -148
-175 3 -3 46 38 95 91 231 245 468 369 753 392 42 4 75 11 71 16 -7 12 -71 10
-174 -6z"/>
<path d="M5325 7949 c-84 -29 -176 -93 -275 -193 -47 -47 -86 -90 -88 -96 -9
-25 19 -4 93 71 293 297 502 286 603 -31 17 -53 52 -213 52 -238 0 -3 4 -2 9
4 13 12 -11 148 -44 251 -52 165 -143 254 -260 253 -16 -1 -57 -10 -90 -21z"/>
<path d="M6493 3184 c-25 -18 -71 -21 -130 -10 -65 12 -54 -10 11 -24 62 -13
124 0 152 32 22 23 0 24 -33 2z"/>
</g>
</svg>
