<?xml version="1.0" standalone="no"?>
<!DOCTYPE svg PUBLIC "-//W3C//DTD SVG 20010904//EN"
 "http://www.w3.org/TR/2001/REC-SVG-20010904/DTD/svg10.dtd">
<svg version="1.0" xmlns="http://www.w3.org/2000/svg"
 width="191.000000pt" height="263.000000pt" viewBox="0 0 191.000000 263.000000"
 preserveAspectRatio="xMidYMid meet">

<g transform="translate(0.000000,263.000000) scale(0.100000,-0.100000)"
fill="#000000" stroke="none">
<path d="M1021 2593 c42 -5 65 -26 85 -80 l15 -38 -6 35 c-8 51 -50 90 -94 88
l-36 -1 36 -4z"/>
<path d="M926 2555 c-20 -19 -40 -45 -47 -57 -8 -17 -4 -15 15 7 14 17 25 33
26 37 0 3 15 15 33 27 17 11 27 21 20 21 -7 0 -28 -16 -47 -35z"/>
<path d="M1123 2400 c0 -36 2 -50 4 -32 2 17 2 47 0 65 -2 17 -4 3 -4 -33z"/>
<path d="M846 2435 c-9 -26 -7 -32 5 -12 6 10 9 21 6 23 -2 3 -7 -2 -11 -11z"/>
<path d="M423 2394 l-28 -26 29 21 c68 50 154 10 234 -108 44 -66 57 -74 20
-12 -28 47 -96 119 -130 137 -43 22 -93 18 -125 -12z"/>
<path d="M1236 2389 c40 -43 54 -71 71 -134 l13 -50 -5 45 c-7 54 -52 138 -86
159 -20 12 -19 9 7 -20z"/>
<path d="M504 2365 c-14 -36 49 -116 149 -190 60 -44 42 -23 -29 35 -76 61
-119 120 -111 150 6 23 -1 27 -9 5z"/>
<path d="M821 2354 c0 -11 3 -14 6 -6 3 7 2 16 -1 19 -3 4 -6 -2 -5 -13z"/>
<path d="M381 2285 c0 -28 3 -65 9 -84 8 -30 6 -38 -20 -68 -17 -18 -30 -39
-30 -46 0 -7 8 2 18 18 11 17 26 36 35 43 13 11 16 10 22 -7 9 -28 43 -69 68
-82 15 -8 11 1 -14 27 -52 55 -70 97 -79 178 -7 65 -7 67 -9 21z"/>
<path d="M811 2314 c0 -11 3 -14 6 -6 3 7 2 16 -1 19 -3 4 -6 -2 -5 -13z"/>
<path d="M1111 2301 c-1 -21 -3 -22 -18 -10 -13 11 -13 8 2 -13 18 -23 20 -24
23 -7 2 11 1 27 -1 37 -3 12 -5 10 -6 -7z"/>
<path d="M803 2235 c0 -22 2 -30 4 -17 2 12 2 30 0 40 -3 9 -5 -1 -4 -23z"/>
<path d="M842 2188 c-23 -22 -46 -57 -52 -77 -16 -57 -11 -60 10 -7 11 27 36
67 57 88 20 21 35 38 32 38 -3 0 -24 -19 -47 -42z"/>
<path d="M700 2205 c0 -6 7 -21 16 -33 14 -20 14 -22 0 -22 -9 0 -16 -5 -16
-10 0 -7 6 -7 19 0 26 13 34 13 24 -2 -4 -7 7 -2 24 12 18 14 32 29 32 34 1 5
-7 2 -17 -7 -27 -25 -49 -21 -66 11 -8 15 -15 22 -16 17z"/>
<path d="M1140 2198 c0 -3 7 -19 15 -34 8 -16 15 -22 15 -14 -1 8 -7 24 -15
34 -8 11 -15 17 -15 14z"/>
<path d="M1302 2160 c0 -14 2 -19 5 -12 2 6 2 18 0 25 -3 6 -5 1 -5 -13z"/>
<path d="M1172 2100 c0 -19 2 -27 5 -17 2 9 2 25 0 35 -3 9 -5 1 -5 -18z"/>
<path d="M1287 2111 c-4 -17 -3 -21 5 -13 5 5 8 16 6 23 -3 8 -7 3 -11 -10z"/>
<path d="M685 2109 c-4 -6 -5 -12 -2 -15 2 -3 7 2 10 11 7 17 1 20 -8 4z"/>
<path d="M672 2063 c-2 -19 -9 -22 -59 -26 l-58 -3 58 -2 c31 -1 57 -6 57 -12
0 -5 9 -18 21 -29 19 -17 24 -18 53 -6 31 13 35 12 69 -16 l37 -30 -1 33 c-1
25 -3 27 -6 10 l-5 -24 -24 22 c-13 13 -21 27 -18 31 7 13 0 11 -32 -6 -55
-28 -79 -16 -87 45 -2 19 -5 25 -5 13z"/>
<path d="M1245 2055 c-31 -26 -75 -34 -75 -14 0 7 -9 0 -21 -15 -11 -14 -28
-26 -37 -27 -12 0 -13 -2 -4 -6 7 -3 22 3 33 13 13 11 32 17 49 16 20 -2 38 5
62 27 40 36 35 40 -7 6z"/>
<path d="M321 2033 c-6 -21 -10 -60 -10 -88 2 -48 2 -48 9 17 5 37 11 76 15
87 3 12 4 21 1 21 -3 0 -10 -17 -15 -37z"/>
<path d="M830 2026 c0 -2 7 -6 15 -10 8 -3 15 -1 15 4 0 6 -7 10 -15 10 -8 0
-15 -2 -15 -4z"/>
<path d="M472 1967 c-3 -95 30 -147 92 -147 24 0 25 -3 29 -67 l3 -68 2 67 c2
60 5 69 30 88 l27 22 6 -44 6 -43 1 48 c1 27 7 58 13 70 10 22 10 22 -8 2 -38
-42 -76 -65 -109 -65 -59 0 -79 34 -87 150 -3 40 -4 39 -5 -13z"/>
<path d="M883 2013 c9 -2 23 -2 30 0 6 3 -1 5 -18 5 -16 0 -22 -2 -12 -5z"/>
<path d="M985 2000 c17 -4 39 -8 50 -8 16 0 15 2 -5 8 -14 4 -36 8 -50 8 -22
0 -22 -1 5 -8z"/>
<path d="M1215 1990 c10 -11 20 -20 23 -20 3 0 -3 9 -13 20 -10 11 -20 20 -23
20 -3 0 3 -9 13 -20z"/>
<path d="M1085 1954 c14 -20 30 -55 36 -78 15 -59 20 -67 13 -22 -6 45 -49
136 -64 136 -5 0 2 -16 15 -36z"/>
<path d="M926 1946 c6 -16 4 -18 -11 -13 -16 7 -16 5 -4 -9 13 -15 11 -17 -18
-12 -18 2 -30 1 -27 -4 3 -4 14 -8 25 -8 10 0 19 -6 20 -12 0 -7 4 -3 9 10 14
33 37 27 59 -15 11 -21 20 -34 21 -30 0 16 -29 63 -55 87 -21 20 -25 21 -19 6z"/>
<path d="M1262 1921 c12 -22 24 -38 26 -36 5 4 -37 75 -44 75 -3 0 6 -18 18
-39z"/>
<path d="M696 1933 c-6 -14 -5 -15 5 -6 7 7 10 15 7 18 -3 3 -9 -2 -12 -12z"/>
<path d="M321 1881 c-1 -19 40 -89 56 -95 8 -3 3 9 -11 27 -14 18 -29 44 -35
57 -5 14 -10 19 -10 11z"/>
<path d="M815 1877 c4 -10 2 -17 -5 -17 -6 0 -8 -4 -5 -10 8 -13 -11 -13 -38
1 -21 10 -21 10 -3 -5 23 -19 38 -20 53 -5 18 18 40 4 62 -38 11 -21 20 -34
21 -30 0 4 -6 20 -14 35 -17 33 -80 95 -71 69z"/>
<path d="M912 1835 c0 -11 3 -29 8 -40 11 -25 11 1 0 35 -6 20 -8 21 -8 5z"/>
<path d="M1006 1819 c4 -19 1 -28 -12 -33 -14 -5 -16 -15 -10 -52 5 -41 4 -45
-20 -54 -37 -14 -44 -13 -44 13 0 12 -3 32 -6 44 -5 19 -8 20 -20 8 -15 -15
-16 -127 -1 -118 4 2 5 8 3 12 -3 4 0 8 7 9 14 3 66 9 87 11 13 1 13 2 0 11
-11 7 -8 10 16 10 l31 0 -9 67 c-5 37 -14 74 -19 83 -7 11 -8 8 -3 -11z m9
-49 c3 -5 1 -10 -4 -10 -6 0 -11 5 -11 10 0 6 2 10 4 10 3 0 8 -4 11 -10z"/>
<path d="M1302 1810 c0 -14 2 -19 5 -12 2 6 2 18 0 25 -3 6 -5 1 -5 -13z"/>
<path d="M1142 1772 c-2 -41 -1 -42 26 -36 36 9 44 18 10 12 -25 -5 -27 -2
-31 31 -4 35 -4 35 -5 -7z"/>
<path d="M410 1770 c8 -5 24 -10 34 -10 26 0 18 6 -19 14 -22 5 -26 4 -15 -4z"/>
<path d="M810 1764 c0 -10 5 -26 10 -34 8 -11 9 -7 4 15 -8 37 -14 45 -14 19z"/>
<path d="M930 1765 c0 -5 10 -21 21 -35 13 -17 17 -18 10 -5 -17 33 -31 51
-31 40z"/>
<path d="M508 1753 c7 -3 16 -2 19 1 4 3 -2 6 -13 5 -11 0 -14 -3 -6 -6z"/>
<path d="M1310 1729 l0 -31 -31 26 c-17 14 -35 26 -41 26 -6 0 4 -10 23 -23
27 -18 35 -30 37 -61 2 -22 1 -50 -3 -63 -5 -21 -8 -23 -21 -12 -8 6 -16 10
-18 8 -2 -2 8 -13 22 -23 15 -11 24 -16 20 -11 -4 4 -3 16 2 25 11 20 24 170
16 170 -3 0 -6 -14 -6 -31z"/>
<path d="M681 1731 c-1 -15 46 -101 55 -101 3 0 -4 15 -15 33 -11 18 -25 44
-30 58 -5 13 -10 18 -10 10z"/>
<path d="M830 1703 c0 -6 9 -21 21 -34 l20 -24 -17 30 c-24 39 -24 40 -24 28z"/>
<path d="M602 1660 c0 -14 2 -19 5 -12 2 6 2 18 0 25 -3 6 -5 1 -5 -13z"/>
<path d="M1010 1660 c0 -6 -12 -16 -26 -22 -20 -10 -27 -9 -34 2 -7 12 -14 10
-34 -10 -46 -42 -28 -80 36 -80 83 0 140 52 111 99 -12 19 -53 28 -53 11z"/>
<path d="M754 1604 c12 -14 11 -21 -10 -51 -13 -20 -24 -42 -24 -49 0 -20 -10
-17 -44 14 l-31 27 29 -32 c37 -41 52 -42 59 -3 4 16 16 39 28 51 l21 21 -21
19 c-11 11 -15 12 -7 3z"/>
<path d="M1155 1566 c-11 -17 -45 -46 -75 -64 -52 -31 -60 -33 -132 -30 -42 2
-71 0 -65 -4 7 -4 22 -8 33 -8 12 0 43 -12 69 -27 27 -15 46 -22 42 -16 -9 14
28 46 45 40 7 -2 23 4 34 15 12 10 31 20 44 21 18 1 21 6 16 30 -3 16 -1 38 5
49 17 32 6 28 -16 -6z"/>
<path d="M1206 1584 c-18 -18 -21 -75 -5 -91 8 -8 8 -13 0 -17 -6 -4 -11 -4
-11 1 0 4 -9 -11 -21 -34 -20 -40 -45 -57 -99 -66 -22 -4 -22 -4 5 -6 17 0 44
8 61 18 20 12 36 16 43 10 8 -6 8 -5 2 2 -11 13 13 69 28 69 5 0 25 -7 46 -16
20 -8 39 -13 42 -11 2 3 -11 10 -28 16 -18 6 -41 19 -51 28 -23 20 -23 70 -1
95 20 22 11 24 -11 2z"/>
<path d="M815 1483 l-17 -28 23 22 c12 12 20 25 17 28 -3 3 -13 -7 -23 -22z"/>
<path d="M1495 1488 c58 -30 94 -66 121 -123 13 -27 24 -44 24 -37 0 22 -37
86 -66 116 -27 27 -94 66 -111 66 -4 -1 10 -10 32 -22z"/>
<path d="M720 1458 c0 -16 47 -62 72 -70 9 -3 4 -15 -15 -37 -15 -18 -27 -42
-26 -54 1 -18 2 -17 9 7 16 54 47 76 109 78 l56 1 -65 6 c-68 6 -105 25 -127
63 -9 17 -12 19 -13 6z"/>
<path d="M1146 1453 c-6 -14 -5 -15 5 -6 7 7 10 15 7 18 -3 3 -9 -2 -12 -12z"/>
<path d="M1325 1440 c-11 -5 -16 -9 -11 -9 5 -1 2 -9 -5 -18 -7 -10 -1 -7 14
6 15 14 27 26 27 28 0 4 0 4 -25 -7z"/>
<path d="M1075 1410 l-40 -7 37 -2 c20 0 40 4 43 9 3 6 5 9 3 9 -2 -1 -21 -5
-43 -9z"/>
<path d="M954 1399 c-4 -7 0 -9 14 -5 12 4 26 1 34 -8 9 -8 20 -11 27 -6 9 5
2 11 -20 19 -40 14 -46 14 -55 0z"/>
<path d="M1565 1380 c10 -11 20 -20 23 -20 3 0 -3 9 -13 20 -10 11 -20 20 -23
20 -3 0 3 -9 13 -20z"/>
<path d="M1282 1370 c-7 -11 -8 -20 -3 -20 9 0 24 30 18 36 -1 2 -8 -6 -15
-16z"/>
<path d="M1535 1350 c10 -11 20 -20 23 -20 3 0 -3 9 -13 20 -10 11 -20 20 -23
20 -3 0 3 -9 13 -20z"/>
<path d="M330 1330 c-6 -11 -8 -20 -6 -20 3 0 10 9 16 20 6 11 8 20 6 20 -3 0
-10 -9 -16 -20z"/>
<path d="M1195 1310 l-29 -35 29 26 c17 15 39 31 50 37 l20 11 -20 -2 c-11 0
-33 -17 -50 -37z"/>
<path d="M1520 1295 c13 -14 26 -25 28 -25 3 0 -5 11 -18 25 -13 14 -26 25
-28 25 -3 0 5 -11 18 -25z"/>
<path d="M417 1292 c-10 -10 -17 -23 -17 -28 0 -4 7 2 16 14 8 12 19 22 23 22
5 0 31 -18 60 -41 28 -22 51 -38 51 -36 0 7 -101 87 -110 87 -4 0 -14 -8 -23
-18z"/>
<path d="M554 1296 c11 -9 24 -16 30 -16 12 0 7 5 -24 19 -24 11 -24 11 -6 -3z"/>
<path d="M829 1293 c-13 -16 -12 -17 4 -4 9 7 17 15 17 17 0 8 -8 3 -21 -13z"/>
<path d="M928 1292 c9 -10 19 -17 21 -16 6 5 -20 34 -30 34 -5 0 -1 -8 9 -18z"/>
<path d="M1642 1280 c0 -14 2 -19 5 -12 2 6 2 18 0 25 -3 6 -5 1 -5 -13z"/>
<path d="M296 1268 c-9 -12 -16 -29 -15 -38 0 -13 1 -13 6 0 3 8 12 23 21 33
8 9 13 20 10 23 -3 3 -13 -5 -22 -18z"/>
<path d="M610 1270 c8 -5 20 -10 25 -10 6 0 3 5 -5 10 -8 5 -19 10 -25 10 -5
0 -3 -5 5 -10z"/>
<path d="M746 1255 c-3 -8 -1 -15 4 -15 6 0 10 7 10 15 0 8 -2 15 -4 15 -2 0
-6 -7 -10 -15z"/>
<path d="M973 1215 c-35 -38 -38 -43 -15 -31 21 11 74 78 60 76 -2 -1 -22 -21
-45 -45z"/>
<path d="M1170 1255 c0 -5 5 -17 10 -25 5 -8 10 -10 10 -5 0 6 -5 17 -10 25
-5 8 -10 11 -10 5z"/>
<path d="M675 1240 c4 -6 11 -8 16 -4 14 8 40 -16 55 -51 7 -16 13 -23 14 -15
0 16 -27 60 -44 72 -16 11 -48 9 -41 -2z"/>
<path d="M1320 1230 c-19 -11 -31 -19 -27 -20 4 0 21 7 36 15 16 8 31 11 35 8
11 -11 7 -41 -6 -46 -10 -4 -10 -6 0 -6 8 -1 27 -14 44 -31 16 -16 37 -30 46
-29 14 0 13 2 -3 9 -31 12 -68 57 -62 74 3 8 -2 21 -11 29 -15 14 -21 13 -52
-3z"/>
<path d="M396 1220 c5 -23 4 -24 -10 -7 -14 18 -15 18 -25 -2 -6 -11 -11 -26
-10 -33 0 -7 4 -3 9 10 8 19 12 21 29 10 10 -6 18 -16 17 -22 -2 -6 -1 -7 2
-3 2 5 14 0 26 -10 l21 -18 -20 23 c-11 13 -25 36 -32 50 -13 27 -13 27 -7 2z"/>
<path d="M914 1218 l-19 -23 23 19 c21 18 27 26 19 26 -2 0 -12 -10 -23 -22z"/>
<path d="M311 1204 c0 -11 3 -14 6 -6 3 7 2 16 -1 19 -3 4 -6 -2 -5 -13z"/>
<path d="M274 1162 c3 -52 27 -101 55 -110 7 -2 1 7 -13 21 -13 14 -27 40 -30
58 -12 76 -15 82 -12 31z"/>
<path d="M1238 1203 c6 -2 18 -2 25 0 6 3 1 5 -13 5 -14 0 -19 -2 -12 -5z"/>
<path d="M1428 1183 c13 -13 28 -23 35 -23 7 0 3 6 -8 12 -11 6 -27 16 -35 22
-9 6 -5 1 8 -11z"/>
<path d="M1614 1199 c-3 -6 -20 -17 -38 -25 -17 -7 -25 -13 -18 -14 8 0 10 -5
6 -12 -5 -7 9 3 29 22 20 19 37 36 37 37 0 7 -9 2 -16 -8z"/>
<path d="M835 1165 c-20 -15 -20 -15 0 -8 16 5 15 0 -10 -28 l-30 -34 34 31
c36 34 41 66 6 39z"/>
<path d="M888 1163 c6 -2 18 -2 25 0 6 3 1 5 -13 5 -14 0 -19 -2 -12 -5z"/>
<path d="M1254 1146 c-3 -15 -4 -30 0 -33 3 -4 6 5 6 18 l1 24 22 -25 c13 -14
34 -34 48 -45 13 -11 4 3 -21 30 -25 27 -46 51 -47 53 -1 3 -5 -8 -9 -22z"/>
<path d="M360 1139 c0 -13 5 -31 10 -39 7 -11 8 -5 4 20 -8 43 -14 51 -14 19z"/>
<path d="M1503 1153 c9 -2 23 -2 30 0 6 3 -1 5 -18 5 -16 0 -22 -2 -12 -5z"/>
<path d="M751 1136 c0 -11 -12 -34 -27 -53 l-25 -33 28 1 c17 1 21 3 10 6 -16
4 -16 7 4 34 11 16 18 37 16 47 -4 15 -5 15 -6 -2z"/>
<path d="M790 1140 c-9 -6 -10 -10 -3 -10 6 0 15 5 18 10 8 12 4 12 -15 0z"/>
<path d="M560 1126 c0 -8 88 -66 100 -66 13 0 49 40 50 54 0 5 -9 -3 -21 -18
-25 -32 -34 -32 -73 -3 -40 30 -56 39 -56 33z"/>
<path d="M445 1071 c35 -64 103 -146 149 -178 33 -24 35 -28 21 -43 -9 -10
-27 -15 -47 -14 -32 3 -32 3 -5 -4 l29 -7 -19 -25 c-29 -39 -64 -102 -59 -107
3 -3 16 17 29 44 14 26 40 65 59 87 l33 38 38 -22 c26 -15 36 -28 32 -38 -5
-12 -3 -13 10 -2 14 11 6 20 -59 62 -84 55 -154 128 -198 206 -17 28 -32 52
-35 52 -2 0 8 -22 22 -49z"/>
<path d="M1490 1111 l25 -7 -35 -22 c-19 -12 -29 -22 -23 -22 7 0 27 13 45 30
l33 29 -35 0 c-31 -1 -32 -2 -10 -8z"/>
<path d="M776 1075 c-11 -8 -15 -15 -9 -15 6 0 16 7 23 15 16 19 11 19 -14 0z"/>
<path d="M380 1075 c0 -16 51 -88 74 -105 11 -8 34 -20 51 -27 24 -10 26 -10
11 0 -38 24 -100 83 -118 112 -10 17 -18 25 -18 20z"/>
<path d="M1232 1040 c0 -19 2 -27 5 -17 2 9 2 25 0 35 -3 9 -5 1 -5 -18z"/>
<path d="M1393 1053 c9 -2 25 -2 35 0 9 3 1 5 -18 5 -19 0 -27 -2 -17 -5z"/>
<path d="M358 1043 c7 -3 16 -2 19 1 4 3 -2 6 -13 5 -11 0 -14 -3 -6 -6z"/>
<path d="M1205 864 c-10 -19 -31 -43 -47 -52 -15 -9 -28 -20 -28 -25 0 -4 -4
-5 -10 -2 -5 3 -7 0 -5 -8 3 -7 -19 -65 -49 -128 -57 -120 -73 -169 -56 -169
5 0 10 12 10 26 0 16 4 23 12 18 7 -4 8 -3 4 5 -10 16 13 83 26 75 6 -4 8 -2
5 3 -10 16 73 182 99 200 24 15 70 81 62 88 -2 2 -12 -12 -23 -31z"/>
<path d="M505 798 l-16 -33 20 25 c20 24 26 40 16 40 -2 0 -12 -15 -20 -32z"/>
<path d="M783 793 c4 -3 7 -14 8 -26 0 -15 2 -17 6 -7 3 8 11 18 17 22 8 6 8
8 -1 8 -6 0 -17 2 -25 3 -7 2 -10 2 -5 0z"/>
<path d="M668 763 c-21 -26 -50 -74 -46 -78 2 -2 17 19 35 46 33 51 37 62 11
32z"/>
<path d="M888 763 c6 -2 18 -2 25 0 6 3 1 5 -13 5 -14 0 -19 -2 -12 -5z"/>
<path d="M1023 763 c9 -2 23 -2 30 0 6 3 -1 5 -18 5 -16 0 -22 -2 -12 -5z"/>
<path d="M480 746 c0 -8 4 -17 9 -20 5 -4 7 3 4 14 -6 23 -13 26 -13 6z"/>
<path d="M950 750 c0 -5 7 -7 15 -4 8 4 15 8 15 10 0 2 -7 4 -15 4 -8 0 -15
-4 -15 -10z"/>
<path d="M963 685 c0 -27 2 -38 4 -22 2 15 2 37 0 50 -2 12 -4 0 -4 -28z"/>
<path d="M491 643 c-6 -21 -11 -49 -10 -63 0 -14 7 2 15 34 16 66 12 90 -5 29z"/>
<path d="M601 624 c0 -11 3 -14 6 -6 3 7 2 16 -1 19 -3 4 -6 -2 -5 -13z"/>
<path d="M770 637 c0 -2 15 -16 33 -33 l32 -29 -29 33 c-28 30 -36 37 -36 29z"/>
<path d="M591 554 c-3 -90 60 -195 116 -193 l28 1 -29 8 c-60 18 -93 72 -106
170 -7 51 -7 52 -9 14z"/>
<path d="M932 577 c-6 -7 -7 -19 -3 -26 6 -9 10 -5 13 13 6 30 5 31 -10 13z"/>
<path d="M1101 535 c16 -33 36 -91 44 -130 12 -57 13 -61 10 -21 -7 68 -34
149 -61 183 -19 24 -18 19 7 -32z"/>
<path d="M844 488 c-10 -23 -30 -56 -44 -73 -23 -29 -23 -29 -1 -10 23 20 76
113 68 121 -2 2 -12 -15 -23 -38z"/>
<path d="M1040 506 c0 -10 40 -90 40 -80 0 15 -29 84 -35 84 -3 0 -5 -2 -5 -4z"/>
<path d="M482 470 c0 -14 2 -19 5 -12 2 6 2 18 0 25 -3 6 -5 1 -5 -13z"/>
<path d="M872 411 c-18 -32 -32 -62 -32 -67 0 -5 16 20 36 55 19 35 34 65 32
67 -2 2 -18 -23 -36 -55z"/>
<path d="M491 414 c0 -11 3 -14 6 -6 3 7 2 16 -1 19 -3 4 -6 -2 -5 -13z"/>
<path d="M1081 394 c0 -11 3 -14 6 -6 3 7 2 16 -1 19 -3 4 -6 -2 -5 -13z"/>
<path d="M750 380 c-9 -6 -10 -10 -3 -10 6 0 15 5 18 10 8 12 4 12 -15 0z"/>
<path d="M1092 330 c0 -19 2 -27 5 -17 2 9 2 25 0 35 -3 9 -5 1 -5 -18z"/>
<path d="M520 343 c0 -17 83 -109 113 -125 54 -29 55 -20 2 14 -27 18 -64 52
-82 76 -18 24 -33 40 -33 35z"/>
<path d="M804 269 c-24 -55 -39 -69 -75 -69 -28 0 -28 0 -11 -22 97 -120 129
-138 256 -143 l91 -4 -87 9 c-109 10 -164 35 -213 94 -21 26 -36 48 -34 49 2
2 15 8 29 14 23 10 78 98 68 109 -3 2 -13 -15 -24 -37z"/>
<path d="M1095 250 c-4 -23 -5 -43 -2 -46 2 -3 7 14 11 37 4 23 5 44 2 46 -2
2 -7 -14 -11 -37z"/>
<path d="M1152 240 c0 -14 2 -19 5 -12 2 6 2 18 0 25 -3 6 -5 1 -5 -13z"/>
<path d="M820 244 c0 -6 15 -26 33 -45 17 -20 25 -26 16 -15 -9 12 -23 32 -32
46 -10 13 -17 20 -17 14z"/>
<path d="M1150 203 c0 -5 9 -19 20 -31 26 -28 25 -50 -2 -81 l-23 -26 28 24
c34 30 34 55 2 93 -14 16 -25 26 -25 21z"/>
<path d="M1080 182 c0 -6 9 -12 20 -15 11 -3 20 -3 20 -1 0 2 -9 8 -20 14 -11
6 -20 7 -20 2z"/>
<path d="M978 163 c12 -2 32 -2 45 0 12 2 2 4 -23 4 -25 0 -35 -2 -22 -4z"/>
<path d="M928 153 c7 -3 16 -2 19 1 4 3 -2 6 -13 5 -11 0 -14 -3 -6 -6z"/>
<path d="M870 140 c-18 -12 -2 -12 25 0 13 6 15 9 5 9 -8 0 -22 -4 -30 -9z"/>
<path d="M1095 55 c-16 -8 -23 -14 -15 -14 8 0 26 6 40 14 32 18 15 18 -25 0z"/>
</g>
</svg>
