<?xml version="1.0" standalone="no"?>
<!DOCTYPE svg PUBLIC "-//W3C//DTD SVG 20010904//EN"
 "http://www.w3.org/TR/2001/REC-SVG-20010904/DTD/svg10.dtd">
<svg version="1.0" xmlns="http://www.w3.org/2000/svg"
 width="198.000000pt" height="255.000000pt" viewBox="0 0 198.000000 255.000000"
 preserveAspectRatio="xMidYMid meet">

<g transform="translate(0.000000,255.000000) scale(0.100000,-0.100000)"
fill="#000000" stroke="none">
<path d="M930 2512 c-50 -25 -80 -90 -78 -166 0 -34 3 -45 5 -26 8 84 24 138
51 162 42 39 60 41 86 13 41 -45 65 -246 30 -259 -27 -10 -58 76 -51 143 4 43
3 50 -5 31 -13 -33 -5 -108 15 -148 14 -28 14 -36 1 -60 -7 -15 -14 -36 -14
-48 0 -22 -23 -47 -52 -57 -10 -4 -18 -2 -18 2 0 5 -14 -4 -31 -20 -45 -42
-63 -36 -38 14 10 21 10 21 -5 3 -9 -11 -16 -28 -16 -38 0 -10 -4 -18 -10 -18
-5 0 -10 8 -10 19 0 10 -3 31 -6 47 -4 24 3 40 45 92 61 75 67 95 11 32 -63
-71 -72 -93 -68 -171 3 -76 -8 -93 -28 -39 -7 19 -13 28 -13 20 0 -8 6 -28 12
-44 11 -25 10 -35 -6 -67 -10 -20 -21 -62 -24 -93 -5 -45 -9 -56 -24 -56 -11
0 -25 14 -34 34 -34 70 -91 90 -128 45 -24 -30 -17 -78 19 -126 20 -27 25 -43
22 -74 -2 -21 -1 -39 3 -39 13 0 19 -32 9 -50 -16 -29 -147 -73 -174 -58 -12
7 -16 5 -16 -7 0 -26 -23 -12 -31 19 -7 23 -5 26 11 21 25 -8 55 23 55 55 0
19 6 26 26 28 19 2 31 -5 52 -35 15 -21 27 -34 27 -29 0 5 -7 18 -16 27 -16
17 -15 19 10 28 26 10 35 34 17 45 -5 4 -7 -2 -4 -13 3 -13 -2 -20 -19 -24
-12 -4 -27 -2 -32 3 -15 15 -52 12 -66 -5 -7 -8 -17 -12 -22 -9 -5 3 -4 -3 3
-14 10 -17 10 -23 0 -36 -18 -21 -27 -20 -52 5 -19 19 -19 22 -5 44 13 19 13
23 2 19 -8 -3 -23 5 -35 17 -11 12 -24 19 -28 16 -3 -4 -1 -7 5 -7 16 0 15
-31 -2 -52 -20 -27 -29 -21 -24 17 4 31 1 36 -20 42 -25 6 -42 -9 -41 -37 0
-8 4 -5 9 8 5 12 17 22 26 22 15 0 16 -8 10 -67 -4 -37 -9 -70 -12 -72 -3 -3
-13 0 -23 6 -16 10 -18 9 -14 -5 3 -12 14 -17 35 -17 39 0 48 -20 12 -29 -18
-5 -32 -2 -43 9 -10 8 -27 15 -39 15 -12 0 -22 6 -22 13 0 13 71 73 82 70 4
-2 4 5 1 14 -4 11 -8 13 -11 5 -6 -20 -30 -14 -37 9 -5 13 -2 25 6 31 11 8 11
9 -1 5 -16 -4 -18 -29 -5 -62 l8 -20 -24 20 -24 20 18 -21 c18 -21 18 -23 -7
-47 -17 -17 -23 -32 -19 -43 5 -13 2 -15 -18 -9 l-24 8 24 -20 25 -20 -22 -7
c-24 -8 -76 20 -66 36 4 6 20 16 38 24 17 7 24 13 15 14 -9 0 -29 -10 -44 -22
l-28 -21 33 -27 c28 -23 31 -29 21 -48 -26 -52 -31 -62 -31 -69 0 -4 6 1 13
12 8 10 19 15 26 11 9 -6 7 -12 -6 -21 -17 -13 -16 -14 5 -8 15 3 22 1 22 -8
1 -10 4 -8 11 4 13 22 30 22 22 0 -4 -12 0 -11 11 5 20 26 51 29 65 5 6 -10
11 -12 11 -5 0 6 5 12 11 12 7 0 22 11 35 25 l24 26 -38 -7 c-20 -4 -42 -10
-48 -15 -5 -5 -27 -10 -47 -13 -20 -2 -41 -7 -47 -11 -11 -7 -14 18 -3 29 10
10 11 46 1 40 -4 -3 -8 -14 -8 -24 0 -24 -18 -36 -26 -16 -7 17 23 66 41 66 7
0 20 -11 29 -25 15 -23 15 -25 1 -25 -9 0 -14 -4 -11 -9 7 -11 46 -2 46 10 0
5 -4 9 -9 9 -5 0 -19 16 -32 36 -23 38 -17 53 24 54 19 0 22 -10 7 -28 -7 -9
-7 -9 2 -2 18 15 28 12 21 -7 -6 -15 -5 -15 16 -1 12 9 32 13 43 10 15 -3 19
-1 14 6 -9 16 19 26 42 17 15 -7 14 -9 -8 -15 -22 -7 -23 -8 -4 -9 29 -1 51
-28 36 -43 -9 -9 -17 -7 -34 8 l-23 19 18 -21 c9 -11 17 -25 17 -31 0 -6 6
-16 14 -22 11 -9 12 -7 9 13 -3 13 -1 26 5 30 8 5 58 -7 91 -24 20 -9 26 -30
8 -30 -8 0 -20 -7 -27 -15 -9 -11 -16 -13 -24 -5 -15 15 -43 12 -58 -7 -8 -11
-26 -18 -45 -18 -31 1 -33 -1 -33 -34 l0 -34 -23 21 c-21 20 -25 20 -44 7 -11
-8 -23 -12 -27 -10 -3 3 -1 -1 5 -8 9 -9 12 -9 16 1 7 19 44 14 50 -7 4 -17 8
-18 25 -8 16 10 22 8 39 -12 19 -23 19 -24 -3 -60 -31 -52 -33 -54 -57 -39
-22 13 -30 68 -11 68 6 0 10 4 10 9 0 5 -8 7 -19 4 -10 -3 -22 0 -25 6 -11 17
-63 13 -70 -5 -10 -26 -8 -31 28 -70 28 -30 38 -36 60 -30 22 5 26 3 26 -14 0
-11 8 -33 18 -50 l19 -30 26 28 c15 16 27 32 27 36 0 5 -10 -3 -21 -18 -20
-26 -22 -26 -40 -10 -20 18 -26 54 -9 54 6 0 10 -8 11 -17 0 -10 5 -3 11 16 9
33 9 33 28 13 12 -12 27 -18 42 -15 18 3 23 0 24 -19 1 -13 3 -32 4 -43 2 -11
-1 -29 -4 -40 -7 -18 -6 -18 4 -2 10 16 13 16 44 -8 18 -14 47 -28 64 -31 37
-8 52 -39 29 -62 -14 -13 -20 -13 -54 -1 -21 8 -47 29 -60 48 -13 19 -23 27
-23 19 0 -19 48 -64 85 -78 16 -6 40 -8 54 -5 27 7 40 -6 42 -45 1 -20 3 -18
9 10 l7 35 17 -35 c15 -30 16 -31 11 -7 -4 22 -2 27 15 27 15 0 21 -9 26 -40
6 -34 9 -38 24 -30 10 5 20 6 24 3 10 -10 7 20 -4 37 -8 12 -10 11 -10 -7 0
-34 -15 -28 -27 11 -10 31 -9 35 11 40 32 9 34 8 41 -15 4 -11 9 -18 12 -16 2
3 0 14 -6 25 -8 15 -6 24 10 41 11 11 26 21 34 21 7 0 26 11 42 23 21 18 82
47 98 47 1 0 -2 -20 -8 -44 -13 -58 -3 -92 39 -134 l35 -35 72 7 c40 3 83 9
97 13 24 6 24 6 -8 -37 -34 -47 -41 -94 -23 -157 9 -32 8 -33 -85 -110 -52
-43 -114 -88 -137 -100 -55 -28 -115 -91 -123 -128 -4 -22 0 -38 16 -58 32
-40 73 -58 151 -64 67 -6 69 -7 69 -33 0 -105 249 -106 380 -1 20 16 50 32 68
36 18 3 47 21 66 38 l33 32 7 127 c5 89 4 133 -4 148 -16 29 -23 19 -10 -14
14 -37 12 -93 -4 -138 -8 -21 -10 -35 -5 -32 5 3 9 -15 9 -39 0 -37 -6 -50
-32 -76 -17 -17 -38 -31 -45 -31 -17 0 -17 2 8 47 l21 38 -23 -30 c-99 -129
-253 -196 -377 -165 -110 27 -109 62 6 184 l87 93 12 -28 c18 -43 56 -63 104
-55 48 8 80 26 137 80 53 50 78 96 84 157 5 42 3 48 -22 63 -16 9 -40 16 -55
16 -33 0 -54 24 -55 62 0 44 9 56 92 118 101 77 102 77 184 90 119 19 174 75
174 178 0 53 -11 73 -79 145 l-36 38 33 25 c54 43 72 91 70 186 l-1 83 -6 -91
c-5 -79 -10 -96 -34 -127 -15 -20 -37 -41 -48 -47 -19 -10 -19 -8 -17 75 3 85
2 87 -26 112 -25 21 -36 24 -80 20 -28 -2 -61 -8 -73 -12 -22 -7 -23 -5 -23
49 0 69 -13 96 -45 96 -24 0 -96 -60 -108 -90 -5 -13 -7 -13 -17 2 -6 9 -18
24 -26 33 -15 14 -14 19 11 56 37 57 55 113 55 172 l0 51 30 -32 c74 -82 188
-82 238 0 52 85 49 198 -8 277 -36 49 -76 71 -128 71 -75 0 -152 -78 -152
-154 l0 -41 -35 40 c-34 38 -35 43 -30 97 9 85 31 151 61 179 14 13 35 41 46
62 16 32 17 44 8 72 -6 18 -18 36 -26 39 -26 10 -91 7 -119 -6 -21 -9 -32 -8
-61 5 -38 19 -129 23 -139 7 -11 -18 -23 -11 -30 18 -17 71 -57 99 -105 74z
m460 -118 c27 -31 15 -70 -43 -146 -50 -66 -96 -148 -82 -148 3 0 10 12 16 26
14 38 19 25 9 -21 -5 -22 -10 -57 -10 -78 0 -50 -24 -95 -55 -103 -59 -15
-155 97 -155 180 0 30 7 45 34 72 18 18 28 35 23 37 -7 2 -5 19 7 50 19 49 78
110 130 133 43 18 110 18 126 -2z m-280 -167 c0 -7 -11 -28 -25 -47 -14 -19
-25 -40 -25 -47 0 -8 -13 -13 -35 -13 -29 0 -36 4 -41 26 -5 18 -1 34 13 52
23 31 49 43 40 18 -6 -15 -3 -14 19 3 30 24 54 27 54 8z m-140 -167 c-11 -21
-20 -52 -20 -67 0 -20 -3 -24 -9 -14 -7 11 -10 10 -13 -5 -4 -18 -4 -18 -15 2
-18 32 -20 96 -4 102 10 3 12 0 8 -12 -4 -9 -3 -14 2 -11 5 3 12 -3 14 -12 3
-12 5 -9 6 8 1 21 21 41 49 48 1 1 -7 -17 -18 -39z m86 23 c14 -45 35 -83 63
-115 26 -30 29 -40 24 -73 -3 -20 -20 -59 -38 -85 l-32 -48 31 19 c67 41 178
12 210 -55 22 -46 20 -104 -4 -143 -17 -29 -25 -33 -60 -33 -23 0 -54 -7 -69
-15 -32 -16 -81 -70 -81 -89 0 -20 -79 -66 -112 -66 -19 0 -53 15 -87 38 -49
32 -53 37 -33 40 16 2 29 -4 39 -17 16 -24 64 -51 88 -51 33 0 71 52 79 107 3
28 13 56 20 62 8 7 24 35 36 64 28 64 24 61 52 47 20 -11 21 -11 8 3 -23 22
-61 27 -95 12 l-30 -13 39 5 c37 6 38 5 31 -18 -30 -100 -163 -189 -285 -189
-131 0 -250 82 -267 184 -5 33 -4 35 28 38 27 2 37 10 49 35 13 28 20 33 51
33 25 0 50 -10 80 -32 24 -17 36 -22 26 -11 -16 18 -16 23 -2 63 26 73 30 144
10 192 l-17 43 29 22 c15 13 30 23 33 23 3 0 13 -23 22 -52 14 -47 14 -55 1
-78 l-15 -25 20 25 c17 20 24 23 39 14 10 -6 21 -24 24 -40 4 -16 5 3 2 42 -6
71 1 98 35 137 8 9 24 17 34 17 10 0 21 -8 24 -17z m-246 -97 c0 -21 -20 -30
-33 -16 -9 10 -8 12 7 6 14 -5 17 -2 12 9 -3 8 -1 15 4 15 6 0 10 -6 10 -14z
m507 -49 c48 -69 63 -206 32 -282 -6 -16 -8 -13 -8 16 -1 58 -29 135 -66 184
-19 25 -35 48 -35 51 0 8 43 63 50 63 3 1 15 -14 27 -32z m-534 17 c3 -4 0
-19 -8 -35 -22 -42 -18 -46 8 -9 12 19 28 36 36 38 20 7 8 -115 -13 -136 -9
-10 -16 -11 -16 -5 0 6 6 14 13 16 9 4 9 6 -1 6 -8 1 -19 -12 -25 -29 -18 -47
-30 -35 -24 23 4 34 3 43 -3 27 -4 -14 -8 -38 -9 -53 -1 -18 -5 -26 -12 -21
-15 9 -6 87 16 142 17 41 25 49 38 36z m-157 -119 c18 -28 13 -55 -10 -55 -20
0 -50 46 -42 65 8 23 34 18 52 -10z m-299 -224 c-3 -11 2 -29 10 -41 15 -21
15 -22 -6 -11 -11 7 -21 16 -21 22 0 6 -4 7 -10 4 -13 -8 -13 1 0 26 14 25 34
25 27 0z m-12 -53 c48 -31 45 -65 -5 -60 -45 5 -60 18 -60 53 0 36 17 37 65 7z
m302 -54 c-12 -13 -30 -24 -39 -24 -24 0 -23 4 7 36 14 15 23 30 19 33 -3 3
-15 -6 -26 -22 -20 -28 -42 -35 -53 -17 -3 5 7 15 22 22 15 7 32 19 36 26 7
11 14 9 33 -9 l23 -22 -22 -23z m878 36 c4 -16 6 -49 4 -72 -2 -38 3 -48 39
-86 29 -30 42 -52 42 -71 0 -50 -57 -73 -98 -41 -13 11 -42 24 -62 30 -29 8
-40 17 -45 37 -5 22 1 34 45 78 40 40 52 60 55 91 5 39 5 39 -4 5 -8 -31 -85
-121 -103 -121 -14 0 -9 80 7 111 17 32 69 69 97 69 10 0 19 -11 23 -30z
m-210 -12 c14 -6 35 -27 46 -45 18 -28 21 -46 17 -100 -2 -37 -2 -61 0 -55 8
24 22 0 22 -36 0 -76 -69 -142 -147 -142 -52 0 -59 10 -28 44 13 14 20 26 16
26 -5 0 -18 15 -30 33 -11 17 -21 27 -21 21 0 -6 9 -23 20 -36 19 -24 19 -26
1 -42 -23 -21 -28 -20 -34 3 -3 11 -20 29 -38 40 -35 22 -34 24 16 22 l30 0
-29 9 c-15 5 -37 17 -49 27 -20 17 -20 17 -9 -2 8 -15 6 -27 -5 -49 -15 -28
-16 -29 -29 -11 -8 10 -14 41 -14 68 0 51 7 61 97 136 15 13 20 18 11 11 -30
-21 -20 4 15 37 51 50 95 63 142 41z m-795 -33 c-14 -16 -50 -21 -50 -6 0 11
18 19 44 20 15 1 16 -2 6 -14z m206 -4 l37 -20 -34 -30 c-21 -19 -36 -27 -40
-20 -5 8 -8 8 -13 0 -10 -15 -49 -14 -66 2 -12 10 -12 9 -1 -5 10 -13 9 -22
-3 -47 -19 -35 -19 -41 -6 -41 6 0 10 8 10 18 1 33 26 54 62 50 21 -2 33 -8
33 -18 0 -9 -7 -14 -20 -12 -18 3 -18 2 3 -13 12 -9 20 -21 16 -26 -3 -6 -11
-3 -18 6 -8 11 -22 15 -41 12 l-30 -4 31 -2 c30 -1 50 -22 39 -40 -6 -11 -65
-12 -65 -1 0 8 -34 23 -53 25 -14 0 -37 37 -37 58 0 26 23 16 31 -14 7 -24 7
-24 8 3 1 15 6 30 11 33 6 3 10 12 10 18 0 7 -5 4 -11 -6 -10 -18 -12 -18 -35
4 -27 25 -31 51 -10 68 11 9 20 10 35 1 26 -13 27 -20 2 -13 -10 3 -22 0 -25
-5 -4 -6 2 -8 14 -5 16 4 19 2 14 -13 -6 -18 -6 -18 7 -2 8 10 26 19 41 20 15
1 25 4 23 7 -8 7 16 31 31 31 8 0 30 -9 50 -19z m-233 -21 c27 0 20 -23 -13
-42 -27 -15 -45 -9 -20 7 6 3 10 12 10 18 0 7 -8 0 -18 -15 -20 -33 -23 -34
-50 -10 -22 19 -39 62 -24 62 13 0 29 -21 35 -45 4 -16 5 -15 6 6 2 37 20 53
41 34 9 -8 24 -15 33 -15z m592 -7 c-4 -16 -11 -34 -17 -40 -15 -18 -77 -17
-84 2 -7 18 14 47 30 42 6 -2 17 2 24 10 7 7 23 13 34 13 17 0 19 -4 13 -27z
m-260 -22 c8 -17 12 -38 9 -48 -5 -16 -4 -16 7 1 9 15 9 24 0 37 -26 43 2 39
54 -7 22 -20 35 -33 28 -30 -21 11 -36 -70 -23 -122 6 -24 9 -46 8 -48 -2 -1
-17 -10 -33 -18 -25 -13 -30 -13 -40 1 -9 12 -10 8 -7 -21 4 -32 2 -36 -18
-36 -35 0 -60 19 -60 45 0 31 7 31 39 3 22 -20 23 -20 8 -2 -22 27 -22 34 3
34 28 0 37 43 16 75 -12 19 -25 25 -52 25 -29 0 -33 -2 -22 -14 7 -8 15 -10
16 -5 7 17 32 9 48 -16 20 -31 12 -55 -20 -55 -17 0 -26 7 -30 24 -3 14 -13
31 -21 39 -7 8 -17 26 -21 41 -5 23 -3 26 18 26 14 0 28 -3 31 -7 4 -4 24 -7
45 -7 l37 -1 0 -48 c0 -26 3 -47 8 -47 14 0 7 87 -8 100 -8 7 -38 14 -66 16
-61 4 -85 19 -67 41 11 14 20 14 63 -2 17 -6 16 -5 -3 10 -18 13 -21 20 -11
31 19 23 47 16 64 -15z m868 -12 c38 -17 47 -49 40 -138 l-6 -79 45 -48 c67
-73 78 -94 78 -144 0 -51 -25 -100 -65 -126 -15 -10 -65 -26 -112 -36 -69 -14
-96 -25 -137 -58 -29 -21 -68 -46 -89 -55 -44 -18 -64 -12 -145 45 -66 46 -82
49 -200 30 -73 -12 -86 -12 -116 3 -45 21 -72 88 -59 144 7 33 16 42 68 69
l60 32 19 -37 c19 -37 64 -91 77 -91 4 0 -8 16 -26 36 -19 20 -39 50 -46 66
-11 27 -10 32 5 43 9 7 38 16 64 20 26 3 57 13 69 21 12 8 37 14 55 14 18 0
46 9 62 20 33 21 76 85 76 113 0 37 71 15 125 -39 21 -20 32 -28 26 -17 -12
23 -6 33 20 33 10 0 26 11 34 24 20 29 7 67 -37 113 l-31 32 34 9 c47 14 84
14 112 1z m-1171 -29 c-4 -33 -9 -36 -33 -14 -19 17 -19 19 -3 31 25 18 40 11
36 -17z m489 -30 c30 0 31 -1 25 -31 -3 -17 -6 -42 -6 -54 0 -25 -21 -38 -46
-28 -11 4 -15 15 -12 39 3 22 0 34 -8 34 -18 0 -37 28 -30 45 4 12 10 14 25 5
11 -5 34 -10 52 -10z m-721 -10 c0 -5 -9 -10 -20 -10 -11 0 -20 5 -20 10 0 6
9 10 20 10 11 0 20 -4 20 -10z m253 -59 c-6 -10 -8 -23 -3 -31 10 -16 3 -33
-10 -25 -5 3 -5 -9 0 -27 6 -17 8 -33 6 -35 -1 -2 -20 8 -40 22 -21 14 -36 20
-34 13 3 -7 24 -22 48 -34 24 -12 49 -32 56 -45 18 -32 17 -68 -1 -75 -22 -9
-80 14 -106 42 l-24 26 35 -4 c31 -3 35 0 37 22 1 22 1 22 -4 3 -2 -13 -7 -23
-11 -23 -22 1 -62 55 -62 85 0 14 3 16 8 7 6 -8 13 -1 25 23 16 33 19 35 40
24 20 -11 21 -11 8 4 -8 10 -9 17 -3 17 6 0 9 16 7 36 l-3 37 21 -22 c18 -17
20 -25 10 -40z m411 -6 c-3 -8 6 -26 20 -40 30 -30 45 -75 25 -75 -43 1 -89
70 -89 132 l0 47 25 -25 c13 -13 22 -31 19 -39z m-448 40 c6 -15 -40 -78 -65
-89 -7 -4 -20 -1 -29 6 -13 11 -14 10 -5 -7 10 -18 8 -20 -21 -20 -31 0 -86
34 -86 53 0 17 29 35 46 28 14 -5 14 -9 3 -23 -13 -16 -12 -16 10 -1 13 9 28
15 35 12 6 -2 26 9 44 26 36 33 60 38 68 15z m-86 -10 c0 -10 -51 -28 -57 -21
-2 2 4 11 13 20 17 18 46 18 44 1z m188 -27 c19 -19 14 -26 -23 -30 -27 -3
-35 0 -35 12 0 31 35 41 58 18z m126 -10 c9 -12 16 -30 16 -39 0 -15 -4 -16
-30 -6 -34 13 -45 34 -29 53 16 19 25 18 43 -8z m-56 -32 c3 -16 0 -18 -24
-12 -35 9 -38 12 -29 26 11 17 49 7 53 -14z m-46 -14 c25 -14 39 -17 55 -9 16
7 27 6 38 -3 19 -16 20 -60 1 -60 -7 0 -28 -3 -45 -6 -31 -6 -32 -6 -26 22 5
27 5 27 -5 5 -10 -23 -15 -24 -65 -6 -11 3 -6 -2 10 -11 21 -13 49 -18 92 -17
56 2 65 -1 83 -24 15 -19 20 -22 20 -9 0 27 38 1 57 -39 25 -52 -7 -126 -55
-130 -12 -1 -34 -13 -50 -28 -30 -29 -92 -46 -136 -37 -22 4 -32 13 -39 35
-13 45 -8 118 9 128 21 12 17 70 -7 101 -11 14 -17 30 -14 36 3 5 1 10 -4 10
-15 0 -14 33 1 48 17 17 42 15 80 -6z m428 -23 c0 -3 -7 -12 -16 -20 -13 -10
-17 -10 -25 2 -22 35 3 73 29 41 6 -9 12 -19 12 -23z m-833 -11 c17 -21 24
-88 9 -88 -21 0 -79 67 -73 84 8 19 50 21 64 4z m201 -28 l23 -34 -23 -13
c-44 -24 -98 -11 -98 24 0 8 10 18 23 23 13 5 16 9 7 10 -12 0 -10 4 5 15 25
20 35 16 63 -25z m517 -41 c-33 -16 -67 -29 -75 -29 -8 0 11 11 43 24 33 14
61 27 65 30 3 3 10 6 16 5 6 0 -16 -14 -49 -30z m258 9 c21 -11 21 -11 2 -19
-11 -4 -31 -8 -44 -8 -23 -1 -24 0 -6 19 21 23 20 23 48 8z m-690 -92 c33 -13
38 -19 35 -43 -4 -40 -45 -43 -87 -7 -37 31 -54 68 -45 96 6 19 7 19 32 -5 15
-14 44 -32 65 -41z m792 -339 c-8 -20 -15 -52 -15 -72 0 -19 -4 -35 -8 -35
-21 0 -43 29 -49 63 -5 34 -2 42 28 73 27 28 35 32 46 21 11 -11 11 -20 -2
-50z m5 -146 c9 -18 8 -19 -20 -4 -17 8 -30 21 -30 29 0 20 35 1 50 -25z
m-160 -10 c0 -5 -29 -38 -65 -74 -65 -65 -87 -66 -45 -2 35 54 110 105 110 76z
m362 -8 c10 -9 18 -20 18 -24 0 -12 -73 16 -78 29 -6 18 39 14 60 -5z m-172
-41 c0 -5 -18 -28 -39 -51 -22 -24 -47 -58 -56 -78 -21 -44 -28 -38 -14 11 14
52 109 154 109 118z m-305 -142 c23 -25 92 -27 136 -4 29 15 30 14 21 -3 -6
-10 -43 -54 -84 -99 -58 -65 -80 -83 -109 -89 -45 -8 -102 2 -152 27 -98 49
-61 130 101 222 l57 32 6 -33 c3 -18 14 -42 24 -53z"/>
<path d="M864 1875 c-11 -43 1 -154 17 -170 35 -35 77 20 84 108 3 44 3 46 -4
17 -5 -19 -9 -29 -10 -22 0 6 -9 12 -20 12 -24 0 -45 -50 -37 -87 6 -27 6 -27
-10 -8 -12 15 -15 38 -12 98 2 42 2 77 1 77 -2 0 -5 -11 -9 -25z"/>
<path d="M1152 1310 c0 -14 2 -19 5 -12 2 6 2 18 0 25 -3 6 -5 1 -5 -13z"/>
<path d="M675 1455 c-16 -8 -23 -14 -14 -15 8 0 24 7 35 15 23 18 18 18 -21 0z"/>
<path d="M420 1191 c0 -6 4 -13 10 -16 6 -3 7 1 4 9 -7 18 -14 21 -14 7z"/>
<path d="M680 1092 c8 -5 26 -13 40 -16 17 -5 20 -4 10 2 -8 5 -26 13 -40 16
-17 5 -20 4 -10 -2z"/>
<path d="M673 1033 c15 -2 37 -2 50 0 12 2 0 4 -28 4 -27 0 -38 -2 -22 -4z"/>
<path d="M678 983 c6 -2 18 -2 25 0 6 3 1 5 -13 5 -14 0 -19 -2 -12 -5z"/>
<path d="M175 1199 c-4 -6 -5 -12 -2 -15 2 -3 7 2 10 11 7 17 1 20 -8 4z"/>
<path d="M905 338 c11 -6 31 -20 45 -32 14 -11 11 -6 -7 12 -18 17 -38 32 -45
32 -7 0 -4 -6 7 -12z"/>
<path d="M1825 1679 c-9 -17 -15 -34 -13 -39 2 -5 11 9 20 30 20 47 15 53 -7
9z"/>
<path d="M470 1680 c8 -5 24 -10 34 -10 26 0 18 6 -19 14 -22 5 -26 4 -15 -4z"/>
<path d="M361 1663 c0 -11 3 -13 6 -5 2 6 12 12 22 12 9 0 23 -6 30 -12 10
-11 11 -10 6 5 -5 11 -18 17 -36 17 -21 0 -29 -5 -28 -17z"/>
<path d="M1803 1570 c0 -25 2 -35 4 -22 2 12 2 32 0 45 -2 12 -4 2 -4 -23z"/>
<path d="M455 1589 c-11 -16 -1 -19 13 -3 7 8 8 14 3 14 -5 0 -13 -5 -16 -11z"/>
<path d="M202 1410 c0 -14 2 -19 5 -12 2 6 2 18 0 25 -3 6 -5 1 -5 -13z"/>
<path d="M87 1286 c-9 -7 -17 -19 -17 -26 0 -7 9 -2 21 11 15 17 19 19 15 7
-7 -23 6 -23 20 0 9 14 8 18 -5 19 -9 1 -24 -4 -34 -11z"/>
<path d="M729 883 c14 -27 14 -56 1 -48 -6 3 -10 -5 -10 -19 0 -13 -6 -27 -12
-29 -9 -4 -9 -6 -1 -6 12 -1 43 52 43 74 0 6 -7 20 -16 31 -15 18 -15 18 -5
-3z"/>
<path d="M570 801 c0 -6 4 -13 10 -16 6 -3 7 1 4 9 -7 18 -14 21 -14 7z"/>
<path d="M605 800 c-3 -5 -1 -10 4 -10 6 0 11 5 11 10 0 6 -2 10 -4 10 -3 0
-8 -4 -11 -10z"/>
<path d="M1163 216 c21 -8 48 -22 60 -32 16 -14 16 -11 -3 9 -14 15 -40 29
-60 32 l-35 6 38 -15z"/>
</g>
</svg>
